<mxfile host="app.diagrams.net" agent="Mozilla/5.0 (X11; Linux x86_64; rv:138.0) Gecko/20100101 Firefox/138.0" version="28.1.2" pages="7">
  <diagram name="enviar_ini" id="2wJG4AdMnpz-NX_0Jba6">
    <mxGraphModel dx="1350" dy="806" grid="1" gridSize="10" guides="1" tooltips="1" connect="1" arrows="1" fold="1" page="1" pageScale="1" pageWidth="827" pageHeight="1169" math="0" shadow="0">
      <root>
        <mxCell id="0" />
        <mxCell id="1" parent="0" />
        <mxCell id="FHpluklMEc05XA-YjI_r-1" value="&lt;font data-font-src=&quot;https://fonts.googleapis.com/css?family=Inter&quot; face=&quot;Inter&quot;&gt;Usuario&lt;/font&gt;" style="shape=umlActor;verticalLabelPosition=bottom;verticalAlign=top;html=1;outlineConnect=0;fontSize=14;" parent="1" vertex="1">
          <mxGeometry x="70" y="40" width="20" height="40" as="geometry" />
        </mxCell>
        <mxCell id="FHpluklMEc05XA-YjI_r-3" value="" style="endArrow=none;html=1;rounded=0;strokeColor=default;align=center;verticalAlign=middle;fontFamily=Helvetica;fontSize=12;fontColor=default;labelBackgroundColor=none;startSize=5;endSize=5;opacity=50;dashed=1;entryX=0.5;entryY=1;entryDx=0;entryDy=0;" parent="1" edge="1">
          <mxGeometry width="50" height="50" relative="1" as="geometry">
            <mxPoint x="240" y="330" as="sourcePoint" />
            <mxPoint x="240" y="90" as="targetPoint" />
          </mxGeometry>
        </mxCell>
        <mxCell id="FHpluklMEc05XA-YjI_r-4" value="&lt;font face=&quot;Inter&quot;&gt;Ventana principal&lt;/font&gt;" style="text;html=1;align=center;verticalAlign=middle;whiteSpace=wrap;rounded=0;fontFamily=Helvetica;fontSize=14;fontColor=default;labelBackgroundColor=none;" parent="1" vertex="1">
          <mxGeometry x="180" y="50" width="120" height="40" as="geometry" />
        </mxCell>
        <mxCell id="FHpluklMEc05XA-YjI_r-5" value="" style="endArrow=none;html=1;rounded=0;strokeColor=default;align=center;verticalAlign=middle;fontFamily=Helvetica;fontSize=12;fontColor=default;labelBackgroundColor=none;startSize=5;endSize=5;opacity=50;dashed=1;" parent="1" edge="1">
          <mxGeometry width="50" height="50" relative="1" as="geometry">
            <mxPoint x="80" y="330" as="sourcePoint" />
            <mxPoint x="80" y="110" as="targetPoint" />
          </mxGeometry>
        </mxCell>
        <mxCell id="FHpluklMEc05XA-YjI_r-6" style="edgeStyle=none;shape=connector;rounded=0;orthogonalLoop=1;jettySize=auto;html=1;strokeColor=default;align=center;verticalAlign=middle;fontFamily=Helvetica;fontSize=13;fontColor=default;labelBackgroundColor=default;startSize=5;endArrow=classic;endSize=5;exitX=1;exitY=0;exitDx=0;exitDy=0;entryX=0;entryY=0;entryDx=0;entryDy=0;" parent="1" target="FHpluklMEc05XA-YjI_r-7" edge="1" source="GrPyyiBdlJjQdglaDRuM-3">
          <mxGeometry relative="1" as="geometry">
            <mxPoint x="80" y="140" as="sourcePoint" />
            <mxPoint x="170" y="140" as="targetPoint" />
          </mxGeometry>
        </mxCell>
        <mxCell id="FHpluklMEc05XA-YjI_r-7" value="" style="rounded=0;whiteSpace=wrap;html=1;" parent="1" vertex="1">
          <mxGeometry x="232.5" y="140" width="15" height="40" as="geometry" />
        </mxCell>
        <mxCell id="FHpluklMEc05XA-YjI_r-11" value="Enviar perfiles" style="text;html=1;align=center;verticalAlign=middle;whiteSpace=wrap;rounded=0;fontFamily=Inter;fontSource=https%3A%2F%2Ffonts.googleapis.com%2Fcss%3Ffamily%3DInter;" parent="1" vertex="1">
          <mxGeometry x="80" y="120" width="160" height="20" as="geometry" />
        </mxCell>
        <mxCell id="FHpluklMEc05XA-YjI_r-12" style="edgeStyle=none;shape=connector;rounded=0;orthogonalLoop=1;jettySize=auto;html=1;strokeColor=default;align=center;verticalAlign=middle;fontFamily=Helvetica;fontSize=13;fontColor=default;labelBackgroundColor=default;startSize=5;endArrow=classic;endSize=5;exitX=1;exitY=0.5;exitDx=0;exitDy=0;entryX=0;entryY=0;entryDx=0;entryDy=0;" parent="1" target="FHpluklMEc05XA-YjI_r-16" edge="1">
          <mxGeometry relative="1" as="geometry">
            <mxPoint x="247.5" y="180" as="sourcePoint" />
            <mxPoint x="380.5" y="180" as="targetPoint" />
          </mxGeometry>
        </mxCell>
        <mxCell id="FHpluklMEc05XA-YjI_r-13" value="mostrar(perfiles)" style="text;html=1;align=center;verticalAlign=middle;whiteSpace=wrap;rounded=0;fontFamily=Inter;fontSource=https%3A%2F%2Ffonts.googleapis.com%2Fcss%3Ffamily%3DInter;" parent="1" vertex="1">
          <mxGeometry x="247.5" y="160" width="152.5" height="20" as="geometry" />
        </mxCell>
        <mxCell id="FHpluklMEc05XA-YjI_r-14" value="" style="endArrow=none;html=1;rounded=0;strokeColor=default;align=center;verticalAlign=middle;fontFamily=Helvetica;fontSize=12;fontColor=default;labelBackgroundColor=none;startSize=5;endSize=5;opacity=50;dashed=1;entryX=0.5;entryY=1;entryDx=0;entryDy=0;" parent="1" edge="1">
          <mxGeometry width="50" height="50" relative="1" as="geometry">
            <mxPoint x="400" y="330" as="sourcePoint" />
            <mxPoint x="400" y="90" as="targetPoint" />
          </mxGeometry>
        </mxCell>
        <mxCell id="FHpluklMEc05XA-YjI_r-15" value="&lt;font face=&quot;Inter&quot;&gt;Ventana envÃ­o&lt;/font&gt;" style="text;html=1;align=center;verticalAlign=middle;whiteSpace=wrap;rounded=0;fontFamily=Helvetica;fontSize=14;fontColor=default;labelBackgroundColor=none;" parent="1" vertex="1">
          <mxGeometry x="340" y="50" width="120" height="40" as="geometry" />
        </mxCell>
        <mxCell id="FHpluklMEc05XA-YjI_r-16" value="" style="rounded=0;whiteSpace=wrap;html=1;" parent="1" vertex="1">
          <mxGeometry x="392.5" y="180" width="15" height="80" as="geometry" />
        </mxCell>
        <mxCell id="FHpluklMEc05XA-YjI_r-19" value="" style="endArrow=none;html=1;rounded=0;strokeColor=default;align=center;verticalAlign=middle;fontFamily=Helvetica;fontSize=12;fontColor=default;labelBackgroundColor=none;startSize=5;endSize=5;opacity=50;dashed=1;entryX=0.5;entryY=1;entryDx=0;entryDy=0;" parent="1" edge="1">
          <mxGeometry width="50" height="50" relative="1" as="geometry">
            <mxPoint x="600" y="330" as="sourcePoint" />
            <mxPoint x="600" y="90" as="targetPoint" />
          </mxGeometry>
        </mxCell>
        <mxCell id="FHpluklMEc05XA-YjI_r-20" value="&lt;font face=&quot;Inter&quot;&gt;PWM Box&lt;/font&gt;" style="text;html=1;align=center;verticalAlign=middle;whiteSpace=wrap;rounded=0;fontFamily=Helvetica;fontSize=14;fontColor=default;labelBackgroundColor=none;" parent="1" vertex="1">
          <mxGeometry x="540" y="50" width="120" height="40" as="geometry" />
        </mxCell>
        <mxCell id="FHpluklMEc05XA-YjI_r-21" value="" style="rounded=0;whiteSpace=wrap;html=1;" parent="1" vertex="1">
          <mxGeometry x="592.5" y="260" width="15" height="40" as="geometry" />
        </mxCell>
        <mxCell id="FHpluklMEc05XA-YjI_r-23" style="edgeStyle=none;shape=connector;rounded=0;orthogonalLoop=1;jettySize=auto;html=1;strokeColor=default;align=center;verticalAlign=middle;fontFamily=Helvetica;fontSize=13;fontColor=default;labelBackgroundColor=default;startSize=5;endArrow=classic;endSize=5;entryX=0;entryY=0;entryDx=0;entryDy=0;exitX=1;exitY=1;exitDx=0;exitDy=0;" parent="1" target="FHpluklMEc05XA-YjI_r-21" edge="1" source="FHpluklMEc05XA-YjI_r-16">
          <mxGeometry relative="1" as="geometry">
            <mxPoint x="247" y="260" as="sourcePoint" />
            <mxPoint x="400" y="260" as="targetPoint" />
          </mxGeometry>
        </mxCell>
        <mxCell id="FHpluklMEc05XA-YjI_r-24" value="enviar(perfiles_seleccionados)" style="text;html=1;align=center;verticalAlign=middle;whiteSpace=wrap;rounded=0;fontFamily=Inter;fontSource=https%3A%2F%2Ffonts.googleapis.com%2Fcss%3Ffamily%3DInter;" parent="1" vertex="1">
          <mxGeometry x="400" y="240" width="200" height="20" as="geometry" />
        </mxCell>
        <mxCell id="GrPyyiBdlJjQdglaDRuM-1" style="edgeStyle=none;shape=connector;rounded=0;orthogonalLoop=1;jettySize=auto;html=1;strokeColor=default;align=center;verticalAlign=middle;fontFamily=Helvetica;fontSize=13;fontColor=default;labelBackgroundColor=default;startSize=5;endArrow=classic;endSize=5;exitX=1;exitY=1;exitDx=0;exitDy=0;entryX=0;entryY=0.5;entryDx=0;entryDy=0;" edge="1" parent="1" source="GrPyyiBdlJjQdglaDRuM-3" target="FHpluklMEc05XA-YjI_r-16">
          <mxGeometry relative="1" as="geometry">
            <mxPoint x="80" y="220" as="sourcePoint" />
            <mxPoint x="233" y="220" as="targetPoint" />
          </mxGeometry>
        </mxCell>
        <mxCell id="GrPyyiBdlJjQdglaDRuM-2" value="Elegir perfiles" style="text;html=1;align=center;verticalAlign=middle;whiteSpace=wrap;rounded=0;fontFamily=Inter;fontSource=https%3A%2F%2Ffonts.googleapis.com%2Fcss%3Ffamily%3DInter;" vertex="1" parent="1">
          <mxGeometry x="80" y="200" width="160" height="20" as="geometry" />
        </mxCell>
        <mxCell id="GrPyyiBdlJjQdglaDRuM-3" value="" style="rounded=0;whiteSpace=wrap;html=1;" vertex="1" parent="1">
          <mxGeometry x="72.5" y="140" width="15" height="80" as="geometry" />
        </mxCell>
      </root>
    </mxGraphModel>
  </diagram>
  <diagram name="enviar_fin" id="ycV7E5ggnrti7_dZZq19">
    <mxGraphModel dx="1286" dy="768" grid="1" gridSize="10" guides="1" tooltips="1" connect="1" arrows="1" fold="1" page="1" pageScale="1" pageWidth="827" pageHeight="1169" math="0" shadow="0">
      <root>
        <mxCell id="u8pUZmomzrTrmmiAYHkN-0" />
        <mxCell id="u8pUZmomzrTrmmiAYHkN-1" parent="u8pUZmomzrTrmmiAYHkN-0" />
        <mxCell id="u8pUZmomzrTrmmiAYHkN-2" value="&lt;font data-font-src=&quot;https://fonts.googleapis.com/css?family=Inter&quot; face=&quot;Inter&quot;&gt;Usuario&lt;/font&gt;" style="shape=umlActor;verticalLabelPosition=bottom;verticalAlign=top;html=1;outlineConnect=0;fontSize=14;" vertex="1" parent="u8pUZmomzrTrmmiAYHkN-1">
          <mxGeometry x="70" y="40" width="20" height="40" as="geometry" />
        </mxCell>
        <mxCell id="u8pUZmomzrTrmmiAYHkN-3" value="" style="endArrow=none;html=1;rounded=0;strokeColor=default;align=center;verticalAlign=middle;fontFamily=Helvetica;fontSize=12;fontColor=default;labelBackgroundColor=none;startSize=5;endSize=5;opacity=50;dashed=1;entryX=0.5;entryY=1;entryDx=0;entryDy=0;" edge="1" parent="u8pUZmomzrTrmmiAYHkN-1">
          <mxGeometry width="50" height="50" relative="1" as="geometry">
            <mxPoint x="240" y="450" as="sourcePoint" />
            <mxPoint x="240" y="90" as="targetPoint" />
          </mxGeometry>
        </mxCell>
        <mxCell id="u8pUZmomzrTrmmiAYHkN-4" value="&lt;font face=&quot;Inter&quot;&gt;Ventana principal&lt;/font&gt;" style="text;html=1;align=center;verticalAlign=middle;whiteSpace=wrap;rounded=0;fontFamily=Helvetica;fontSize=14;fontColor=default;labelBackgroundColor=none;" vertex="1" parent="u8pUZmomzrTrmmiAYHkN-1">
          <mxGeometry x="180" y="50" width="120" height="40" as="geometry" />
        </mxCell>
        <mxCell id="u8pUZmomzrTrmmiAYHkN-5" value="" style="endArrow=none;html=1;rounded=0;strokeColor=default;align=center;verticalAlign=middle;fontFamily=Helvetica;fontSize=12;fontColor=default;labelBackgroundColor=none;startSize=5;endSize=5;opacity=50;dashed=1;" edge="1" parent="u8pUZmomzrTrmmiAYHkN-1">
          <mxGeometry width="50" height="50" relative="1" as="geometry">
            <mxPoint x="80" y="450" as="sourcePoint" />
            <mxPoint x="80" y="110" as="targetPoint" />
          </mxGeometry>
        </mxCell>
        <mxCell id="u8pUZmomzrTrmmiAYHkN-6" style="edgeStyle=none;shape=connector;rounded=0;orthogonalLoop=1;jettySize=auto;html=1;strokeColor=default;align=center;verticalAlign=middle;fontFamily=Helvetica;fontSize=13;fontColor=default;labelBackgroundColor=default;startSize=5;endArrow=classic;endSize=5;exitX=1;exitY=0;exitDx=0;exitDy=0;entryX=0;entryY=0;entryDx=0;entryDy=0;" edge="1" parent="u8pUZmomzrTrmmiAYHkN-1" source="u8pUZmomzrTrmmiAYHkN-21" target="u8pUZmomzrTrmmiAYHkN-7">
          <mxGeometry relative="1" as="geometry">
            <mxPoint x="80" y="140" as="sourcePoint" />
            <mxPoint x="170" y="140" as="targetPoint" />
          </mxGeometry>
        </mxCell>
        <mxCell id="u8pUZmomzrTrmmiAYHkN-7" value="" style="rounded=0;whiteSpace=wrap;html=1;" vertex="1" parent="u8pUZmomzrTrmmiAYHkN-1">
          <mxGeometry x="232.5" y="140" width="15" height="40" as="geometry" />
        </mxCell>
        <mxCell id="u8pUZmomzrTrmmiAYHkN-8" value="Enviar perfiles" style="text;html=1;align=center;verticalAlign=middle;whiteSpace=wrap;rounded=0;fontFamily=Inter;fontSource=https%3A%2F%2Ffonts.googleapis.com%2Fcss%3Ffamily%3DInter;" vertex="1" parent="u8pUZmomzrTrmmiAYHkN-1">
          <mxGeometry x="80" y="120" width="160" height="20" as="geometry" />
        </mxCell>
        <mxCell id="u8pUZmomzrTrmmiAYHkN-9" style="edgeStyle=none;shape=connector;rounded=0;orthogonalLoop=1;jettySize=auto;html=1;strokeColor=default;align=center;verticalAlign=middle;fontFamily=Helvetica;fontSize=13;fontColor=default;labelBackgroundColor=default;startSize=5;endArrow=classic;endSize=5;exitX=1;exitY=0.5;exitDx=0;exitDy=0;entryX=0;entryY=0;entryDx=0;entryDy=0;" edge="1" parent="u8pUZmomzrTrmmiAYHkN-1" target="u8pUZmomzrTrmmiAYHkN-13">
          <mxGeometry relative="1" as="geometry">
            <mxPoint x="247.5" y="180" as="sourcePoint" />
            <mxPoint x="380.5" y="180" as="targetPoint" />
          </mxGeometry>
        </mxCell>
        <mxCell id="u8pUZmomzrTrmmiAYHkN-10" value="mostrar(perfiles)" style="text;html=1;align=center;verticalAlign=middle;whiteSpace=wrap;rounded=0;fontFamily=Inter;fontSource=https%3A%2F%2Ffonts.googleapis.com%2Fcss%3Ffamily%3DInter;" vertex="1" parent="u8pUZmomzrTrmmiAYHkN-1">
          <mxGeometry x="247.5" y="160" width="152.5" height="20" as="geometry" />
        </mxCell>
        <mxCell id="u8pUZmomzrTrmmiAYHkN-11" value="" style="endArrow=none;html=1;rounded=0;strokeColor=default;align=center;verticalAlign=middle;fontFamily=Helvetica;fontSize=12;fontColor=default;labelBackgroundColor=none;startSize=5;endSize=5;opacity=50;dashed=1;entryX=0.5;entryY=1;entryDx=0;entryDy=0;" edge="1" parent="u8pUZmomzrTrmmiAYHkN-1">
          <mxGeometry width="50" height="50" relative="1" as="geometry">
            <mxPoint x="400" y="450" as="sourcePoint" />
            <mxPoint x="400" y="90" as="targetPoint" />
          </mxGeometry>
        </mxCell>
        <mxCell id="u8pUZmomzrTrmmiAYHkN-12" value="&lt;font face=&quot;Inter&quot;&gt;Ventana envÃ­o&lt;/font&gt;" style="text;html=1;align=center;verticalAlign=middle;whiteSpace=wrap;rounded=0;fontFamily=Helvetica;fontSize=14;fontColor=default;labelBackgroundColor=none;" vertex="1" parent="u8pUZmomzrTrmmiAYHkN-1">
          <mxGeometry x="340" y="50" width="120" height="40" as="geometry" />
        </mxCell>
        <mxCell id="u8pUZmomzrTrmmiAYHkN-13" value="" style="rounded=0;whiteSpace=wrap;html=1;" vertex="1" parent="u8pUZmomzrTrmmiAYHkN-1">
          <mxGeometry x="392.5" y="180" width="15" height="120" as="geometry" />
        </mxCell>
        <mxCell id="u8pUZmomzrTrmmiAYHkN-14" value="" style="endArrow=none;html=1;rounded=0;strokeColor=default;align=center;verticalAlign=middle;fontFamily=Helvetica;fontSize=12;fontColor=default;labelBackgroundColor=none;startSize=5;endSize=5;opacity=50;dashed=1;entryX=0.5;entryY=1;entryDx=0;entryDy=0;" edge="1" parent="u8pUZmomzrTrmmiAYHkN-1">
          <mxGeometry width="50" height="50" relative="1" as="geometry">
            <mxPoint x="600" y="370" as="sourcePoint" />
            <mxPoint x="600" y="130" as="targetPoint" />
          </mxGeometry>
        </mxCell>
        <mxCell id="u8pUZmomzrTrmmiAYHkN-15" value="&lt;font face=&quot;Inter&quot;&gt;Hilo envÃ­o&lt;/font&gt;" style="text;html=1;align=center;verticalAlign=middle;whiteSpace=wrap;rounded=0;fontFamily=Helvetica;fontSize=14;fontColor=default;labelBackgroundColor=none;" vertex="1" parent="u8pUZmomzrTrmmiAYHkN-1">
          <mxGeometry x="540" y="50" width="120" height="40" as="geometry" />
        </mxCell>
        <mxCell id="u8pUZmomzrTrmmiAYHkN-16" value="" style="rounded=0;whiteSpace=wrap;html=1;" vertex="1" parent="u8pUZmomzrTrmmiAYHkN-1">
          <mxGeometry x="592.5" y="300" width="15" height="80" as="geometry" />
        </mxCell>
        <mxCell id="u8pUZmomzrTrmmiAYHkN-17" style="edgeStyle=none;shape=connector;rounded=0;orthogonalLoop=1;jettySize=auto;html=1;strokeColor=default;align=center;verticalAlign=middle;fontFamily=Helvetica;fontSize=13;fontColor=default;labelBackgroundColor=default;startSize=5;endArrow=classic;endSize=5;entryX=0;entryY=0;entryDx=0;entryDy=0;exitX=1;exitY=1;exitDx=0;exitDy=0;" edge="1" parent="u8pUZmomzrTrmmiAYHkN-1" target="pZ8UnR-WQYl-Q5DzBPAX-2">
          <mxGeometry relative="1" as="geometry">
            <mxPoint x="407.5" y="260.00000000000006" as="sourcePoint" />
            <mxPoint x="592.5" y="260.00000000000006" as="targetPoint" />
          </mxGeometry>
        </mxCell>
        <mxCell id="u8pUZmomzrTrmmiAYHkN-18" value="mostrar()" style="text;html=1;align=center;verticalAlign=middle;whiteSpace=wrap;rounded=0;fontFamily=Inter;fontSource=https%3A%2F%2Ffonts.googleapis.com%2Fcss%3Ffamily%3DInter;" vertex="1" parent="u8pUZmomzrTrmmiAYHkN-1">
          <mxGeometry x="400" y="240" width="360" height="20" as="geometry" />
        </mxCell>
        <mxCell id="u8pUZmomzrTrmmiAYHkN-19" style="edgeStyle=none;shape=connector;rounded=0;orthogonalLoop=1;jettySize=auto;html=1;strokeColor=default;align=center;verticalAlign=middle;fontFamily=Helvetica;fontSize=13;fontColor=default;labelBackgroundColor=default;startSize=5;endArrow=classic;endSize=5;exitX=1;exitY=1;exitDx=0;exitDy=0;entryX=-0.001;entryY=0.334;entryDx=0;entryDy=0;entryPerimeter=0;" edge="1" parent="u8pUZmomzrTrmmiAYHkN-1" source="u8pUZmomzrTrmmiAYHkN-21" target="u8pUZmomzrTrmmiAYHkN-13">
          <mxGeometry relative="1" as="geometry">
            <mxPoint x="80" y="220" as="sourcePoint" />
            <mxPoint x="233" y="220" as="targetPoint" />
          </mxGeometry>
        </mxCell>
        <mxCell id="u8pUZmomzrTrmmiAYHkN-20" value="Elegir perfiles" style="text;html=1;align=center;verticalAlign=middle;whiteSpace=wrap;rounded=0;fontFamily=Inter;fontSource=https%3A%2F%2Ffonts.googleapis.com%2Fcss%3Ffamily%3DInter;" vertex="1" parent="u8pUZmomzrTrmmiAYHkN-1">
          <mxGeometry x="80" y="200" width="160" height="20" as="geometry" />
        </mxCell>
        <mxCell id="u8pUZmomzrTrmmiAYHkN-21" value="" style="rounded=0;whiteSpace=wrap;html=1;" vertex="1" parent="u8pUZmomzrTrmmiAYHkN-1">
          <mxGeometry x="72.5" y="140" width="15" height="80" as="geometry" />
        </mxCell>
        <mxCell id="pZ8UnR-WQYl-Q5DzBPAX-0" value="" style="endArrow=none;html=1;rounded=0;strokeColor=default;align=center;verticalAlign=middle;fontFamily=Helvetica;fontSize=12;fontColor=default;labelBackgroundColor=none;startSize=5;endSize=5;opacity=50;dashed=1;entryX=0.5;entryY=1;entryDx=0;entryDy=0;" edge="1" parent="u8pUZmomzrTrmmiAYHkN-1">
          <mxGeometry width="50" height="50" relative="1" as="geometry">
            <mxPoint x="960" y="450" as="sourcePoint" />
            <mxPoint x="960" y="90" as="targetPoint" />
          </mxGeometry>
        </mxCell>
        <mxCell id="pZ8UnR-WQYl-Q5DzBPAX-1" value="&lt;font face=&quot;Inter&quot;&gt;Ventana espera&lt;/font&gt;" style="text;html=1;align=center;verticalAlign=middle;whiteSpace=wrap;rounded=0;fontFamily=Helvetica;fontSize=14;fontColor=default;labelBackgroundColor=none;" vertex="1" parent="u8pUZmomzrTrmmiAYHkN-1">
          <mxGeometry x="900" y="50" width="120" height="40" as="geometry" />
        </mxCell>
        <mxCell id="pZ8UnR-WQYl-Q5DzBPAX-2" value="" style="rounded=0;whiteSpace=wrap;html=1;" vertex="1" parent="u8pUZmomzrTrmmiAYHkN-1">
          <mxGeometry x="952.5" y="260" width="15" height="160" as="geometry" />
        </mxCell>
        <mxCell id="pZ8UnR-WQYl-Q5DzBPAX-4" style="edgeStyle=none;shape=connector;rounded=0;orthogonalLoop=1;jettySize=auto;html=1;strokeColor=default;align=center;verticalAlign=middle;fontFamily=Helvetica;fontSize=13;fontColor=default;labelBackgroundColor=default;startSize=5;endArrow=classic;endSize=5;entryX=0;entryY=0;entryDx=0;entryDy=0;exitX=1;exitY=1;exitDx=0;exitDy=0;" edge="1" parent="u8pUZmomzrTrmmiAYHkN-1" source="u8pUZmomzrTrmmiAYHkN-13" target="u8pUZmomzrTrmmiAYHkN-16">
          <mxGeometry relative="1" as="geometry">
            <mxPoint x="407.5" y="299.77000000000004" as="sourcePoint" />
            <mxPoint x="753" y="299.77" as="targetPoint" />
          </mxGeometry>
        </mxCell>
        <mxCell id="pZ8UnR-WQYl-Q5DzBPAX-5" value="ejecutar(perfiles_seleccionados)" style="text;html=1;align=center;verticalAlign=middle;whiteSpace=wrap;rounded=0;fontFamily=Inter;fontSource=https%3A%2F%2Ffonts.googleapis.com%2Fcss%3Ffamily%3DInter;" vertex="1" parent="u8pUZmomzrTrmmiAYHkN-1">
          <mxGeometry x="407.5" y="280" width="192.5" height="20" as="geometry" />
        </mxCell>
        <mxCell id="pZ8UnR-WQYl-Q5DzBPAX-6" value="" style="endArrow=none;html=1;rounded=0;strokeColor=default;align=center;verticalAlign=middle;fontFamily=Helvetica;fontSize=12;fontColor=default;labelBackgroundColor=none;startSize=5;endSize=5;opacity=50;dashed=1;entryX=0.5;entryY=1;entryDx=0;entryDy=0;" edge="1" parent="u8pUZmomzrTrmmiAYHkN-1">
          <mxGeometry width="50" height="50" relative="1" as="geometry">
            <mxPoint x="800" y="450" as="sourcePoint" />
            <mxPoint x="800" y="90" as="targetPoint" />
          </mxGeometry>
        </mxCell>
        <mxCell id="pZ8UnR-WQYl-Q5DzBPAX-7" value="&lt;font face=&quot;Inter&quot;&gt;PWM Box&lt;/font&gt;" style="text;html=1;align=center;verticalAlign=middle;whiteSpace=wrap;rounded=0;fontFamily=Helvetica;fontSize=14;fontColor=default;labelBackgroundColor=none;" vertex="1" parent="u8pUZmomzrTrmmiAYHkN-1">
          <mxGeometry x="740" y="50" width="120" height="40" as="geometry" />
        </mxCell>
        <mxCell id="pZ8UnR-WQYl-Q5DzBPAX-8" value="" style="rounded=0;whiteSpace=wrap;html=1;" vertex="1" parent="u8pUZmomzrTrmmiAYHkN-1">
          <mxGeometry x="792.5" y="340" width="15" height="40" as="geometry" />
        </mxCell>
        <mxCell id="pZ8UnR-WQYl-Q5DzBPAX-14" style="edgeStyle=none;shape=connector;rounded=0;orthogonalLoop=1;jettySize=auto;html=1;strokeColor=default;align=center;verticalAlign=middle;fontFamily=Helvetica;fontSize=13;fontColor=default;labelBackgroundColor=default;startSize=5;endArrow=classic;endSize=5;entryX=0;entryY=0;entryDx=0;entryDy=0;exitX=1;exitY=0.5;exitDx=0;exitDy=0;" edge="1" parent="u8pUZmomzrTrmmiAYHkN-1" source="u8pUZmomzrTrmmiAYHkN-16" target="pZ8UnR-WQYl-Q5DzBPAX-8">
          <mxGeometry relative="1" as="geometry">
            <mxPoint x="607.5" y="339.68" as="sourcePoint" />
            <mxPoint x="792.5" y="339.68" as="targetPoint" />
          </mxGeometry>
        </mxCell>
        <mxCell id="pZ8UnR-WQYl-Q5DzBPAX-15" value="enviar(perfiles_seleccionados)" style="text;html=1;align=center;verticalAlign=middle;whiteSpace=wrap;rounded=0;fontFamily=Inter;fontSource=https%3A%2F%2Ffonts.googleapis.com%2Fcss%3Ffamily%3DInter;" vertex="1" parent="u8pUZmomzrTrmmiAYHkN-1">
          <mxGeometry x="600" y="320" width="200" height="20" as="geometry" />
        </mxCell>
        <mxCell id="pZ8UnR-WQYl-Q5DzBPAX-16" style="edgeStyle=none;shape=connector;rounded=0;orthogonalLoop=1;jettySize=auto;html=1;strokeColor=default;align=center;verticalAlign=middle;fontFamily=Helvetica;fontSize=13;fontColor=default;labelBackgroundColor=default;startSize=5;endArrow=classic;endSize=5;exitX=0;exitY=1;exitDx=0;exitDy=0;entryX=1;entryY=0;entryDx=0;entryDy=0;" edge="1" parent="u8pUZmomzrTrmmiAYHkN-1" source="u8pUZmomzrTrmmiAYHkN-16" target="pZ8UnR-WQYl-Q5DzBPAX-20">
          <mxGeometry relative="1" as="geometry">
            <mxPoint x="308" y="379.62" as="sourcePoint" />
            <mxPoint x="410" y="380" as="targetPoint" />
          </mxGeometry>
        </mxCell>
        <mxCell id="pZ8UnR-WQYl-Q5DzBPAX-17" value="notificar()" style="text;html=1;align=center;verticalAlign=middle;whiteSpace=wrap;rounded=0;fontFamily=Inter;fontSource=https%3A%2F%2Ffonts.googleapis.com%2Fcss%3Ffamily%3DInter;" vertex="1" parent="u8pUZmomzrTrmmiAYHkN-1">
          <mxGeometry x="400" y="360" width="200" height="20" as="geometry" />
        </mxCell>
        <mxCell id="pZ8UnR-WQYl-Q5DzBPAX-18" style="edgeStyle=none;shape=connector;rounded=0;orthogonalLoop=1;jettySize=auto;html=1;strokeColor=default;align=center;verticalAlign=middle;fontFamily=Helvetica;fontSize=13;fontColor=default;labelBackgroundColor=default;startSize=5;endArrow=classic;endSize=5;entryX=0;entryY=0;entryDx=0;entryDy=0;exitX=1;exitY=1;exitDx=0;exitDy=0;" edge="1" parent="u8pUZmomzrTrmmiAYHkN-1">
          <mxGeometry relative="1" as="geometry">
            <mxPoint x="407" y="420.00000000000006" as="sourcePoint" />
            <mxPoint x="952.5" y="420" as="targetPoint" />
          </mxGeometry>
        </mxCell>
        <mxCell id="pZ8UnR-WQYl-Q5DzBPAX-19" value="cerrar()" style="text;html=1;align=center;verticalAlign=middle;whiteSpace=wrap;rounded=0;fontFamily=Inter;fontSource=https%3A%2F%2Ffonts.googleapis.com%2Fcss%3Ffamily%3DInter;" vertex="1" parent="u8pUZmomzrTrmmiAYHkN-1">
          <mxGeometry x="399.5" y="400" width="360" height="20" as="geometry" />
        </mxCell>
        <mxCell id="pZ8UnR-WQYl-Q5DzBPAX-20" value="" style="rounded=0;whiteSpace=wrap;html=1;" vertex="1" parent="u8pUZmomzrTrmmiAYHkN-1">
          <mxGeometry x="392.5" y="380" width="15" height="40" as="geometry" />
        </mxCell>
      </root>
    </mxGraphModel>
  </diagram>
  <diagram id="EAhs3s9srAQkEL1CwIeg" name="exportar">
    <mxGraphModel dx="931" dy="556" grid="1" gridSize="10" guides="1" tooltips="1" connect="1" arrows="1" fold="1" page="1" pageScale="1" pageWidth="827" pageHeight="1169" math="0" shadow="0">
      <root>
        <mxCell id="0" />
        <mxCell id="1" parent="0" />
        <mxCell id="xsylyKW9c_CY92pPQaib-1" value="&lt;font data-font-src=&quot;https://fonts.googleapis.com/css?family=Inter&quot; face=&quot;Inter&quot;&gt;Usuario&lt;/font&gt;" style="shape=umlActor;verticalLabelPosition=bottom;verticalAlign=top;html=1;outlineConnect=0;fontSize=14;fontFamily=Inter;fontSource=https%3A%2F%2Ffonts.googleapis.com%2Fcss%3Ffamily%3DInter;" vertex="1" parent="1">
          <mxGeometry x="30" y="30" width="20" height="40" as="geometry" />
        </mxCell>
        <mxCell id="xsylyKW9c_CY92pPQaib-2" value="" style="endArrow=none;html=1;rounded=0;strokeColor=default;align=center;verticalAlign=middle;fontFamily=Inter;fontSize=12;fontColor=default;labelBackgroundColor=none;startSize=5;endSize=5;opacity=50;dashed=1;entryX=0.5;entryY=1;entryDx=0;entryDy=0;fontSource=https%3A%2F%2Ffonts.googleapis.com%2Fcss%3Ffamily%3DInter;" edge="1" parent="1">
          <mxGeometry width="50" height="50" relative="1" as="geometry">
            <mxPoint x="200" y="440" as="sourcePoint" />
            <mxPoint x="200" y="80" as="targetPoint" />
          </mxGeometry>
        </mxCell>
        <mxCell id="xsylyKW9c_CY92pPQaib-3" value="&lt;font face=&quot;Inter&quot;&gt;Ventana principal&lt;/font&gt;" style="text;html=1;align=center;verticalAlign=middle;whiteSpace=wrap;rounded=0;fontFamily=Inter;fontSize=14;fontColor=default;labelBackgroundColor=none;fontSource=https%3A%2F%2Ffonts.googleapis.com%2Fcss%3Ffamily%3DInter;" vertex="1" parent="1">
          <mxGeometry x="140" y="40" width="120" height="40" as="geometry" />
        </mxCell>
        <mxCell id="xsylyKW9c_CY92pPQaib-4" value="" style="endArrow=none;html=1;rounded=0;strokeColor=default;align=center;verticalAlign=middle;fontFamily=Inter;fontSize=12;fontColor=default;labelBackgroundColor=none;startSize=5;endSize=5;opacity=50;dashed=1;fontSource=https%3A%2F%2Ffonts.googleapis.com%2Fcss%3Ffamily%3DInter;" edge="1" parent="1">
          <mxGeometry width="50" height="50" relative="1" as="geometry">
            <mxPoint x="40" y="440" as="sourcePoint" />
            <mxPoint x="40" y="100" as="targetPoint" />
          </mxGeometry>
        </mxCell>
        <mxCell id="xsylyKW9c_CY92pPQaib-5" style="edgeStyle=none;shape=connector;rounded=0;orthogonalLoop=1;jettySize=auto;html=1;strokeColor=default;align=center;verticalAlign=middle;fontFamily=Inter;fontSize=13;fontColor=default;labelBackgroundColor=default;startSize=5;endArrow=classic;endSize=5;exitX=1;exitY=0;exitDx=0;exitDy=0;entryX=0;entryY=0;entryDx=0;entryDy=0;fontSource=https%3A%2F%2Ffonts.googleapis.com%2Fcss%3Ffamily%3DInter;" edge="1" parent="1" target="xsylyKW9c_CY92pPQaib-6" source="Y9gQyhB2_xH7Sl-MOQJs-1">
          <mxGeometry relative="1" as="geometry">
            <mxPoint x="40" y="130" as="sourcePoint" />
            <mxPoint x="130" y="130" as="targetPoint" />
          </mxGeometry>
        </mxCell>
        <mxCell id="xsylyKW9c_CY92pPQaib-6" value="" style="rounded=0;whiteSpace=wrap;html=1;fontFamily=Inter;fontSource=https%3A%2F%2Ffonts.googleapis.com%2Fcss%3Ffamily%3DInter;" vertex="1" parent="1">
          <mxGeometry x="192.5" y="130" width="15" height="40" as="geometry" />
        </mxCell>
        <mxCell id="xsylyKW9c_CY92pPQaib-7" value="Exportar perfiles" style="text;html=1;align=center;verticalAlign=middle;whiteSpace=wrap;rounded=0;fontFamily=Inter;fontSource=https%3A%2F%2Ffonts.googleapis.com%2Fcss%3Ffamily%3DInter;" vertex="1" parent="1">
          <mxGeometry x="40" y="110" width="160" height="20" as="geometry" />
        </mxCell>
        <mxCell id="xsylyKW9c_CY92pPQaib-8" style="edgeStyle=none;shape=connector;rounded=0;orthogonalLoop=1;jettySize=auto;html=1;strokeColor=default;align=center;verticalAlign=middle;fontFamily=Inter;fontSize=13;fontColor=default;labelBackgroundColor=default;startSize=5;endArrow=classic;endSize=5;exitX=1;exitY=1;exitDx=0;exitDy=0;entryX=0;entryY=0;entryDx=0;entryDy=0;fontSource=https%3A%2F%2Ffonts.googleapis.com%2Fcss%3Ffamily%3DInter;" edge="1" parent="1" target="xsylyKW9c_CY92pPQaib-12" source="xsylyKW9c_CY92pPQaib-6">
          <mxGeometry relative="1" as="geometry">
            <mxPoint x="207.5" y="150" as="sourcePoint" />
            <mxPoint x="340.5" y="150" as="targetPoint" />
          </mxGeometry>
        </mxCell>
        <mxCell id="xsylyKW9c_CY92pPQaib-9" value="mostrar(perfiles)" style="text;html=1;align=center;verticalAlign=middle;whiteSpace=wrap;rounded=0;fontFamily=Inter;fontSource=https%3A%2F%2Ffonts.googleapis.com%2Fcss%3Ffamily%3DInter;" vertex="1" parent="1">
          <mxGeometry x="207.5" y="150" width="145" height="20" as="geometry" />
        </mxCell>
        <mxCell id="xsylyKW9c_CY92pPQaib-10" value="" style="endArrow=none;html=1;rounded=0;strokeColor=default;align=center;verticalAlign=middle;fontFamily=Inter;fontSize=12;fontColor=default;labelBackgroundColor=none;startSize=5;endSize=5;opacity=50;dashed=1;entryX=0.5;entryY=1;entryDx=0;entryDy=0;fontSource=https%3A%2F%2Ffonts.googleapis.com%2Fcss%3Ffamily%3DInter;" edge="1" parent="1">
          <mxGeometry width="50" height="50" relative="1" as="geometry">
            <mxPoint x="360" y="440" as="sourcePoint" />
            <mxPoint x="360" y="80" as="targetPoint" />
          </mxGeometry>
        </mxCell>
        <mxCell id="xsylyKW9c_CY92pPQaib-11" value="&lt;font face=&quot;Inter&quot;&gt;Ventana exportaciÃ³n&lt;/font&gt;" style="text;html=1;align=center;verticalAlign=middle;whiteSpace=wrap;rounded=0;fontFamily=Inter;fontSize=14;fontColor=default;labelBackgroundColor=none;fontSource=https%3A%2F%2Ffonts.googleapis.com%2Fcss%3Ffamily%3DInter;" vertex="1" parent="1">
          <mxGeometry x="290" y="40" width="140" height="40" as="geometry" />
        </mxCell>
        <mxCell id="xsylyKW9c_CY92pPQaib-12" value="" style="rounded=0;whiteSpace=wrap;html=1;fontFamily=Inter;fontSource=https%3A%2F%2Ffonts.googleapis.com%2Fcss%3Ffamily%3DInter;" vertex="1" parent="1">
          <mxGeometry x="352.5" y="170" width="15" height="80" as="geometry" />
        </mxCell>
        <mxCell id="xsylyKW9c_CY92pPQaib-13" style="edgeStyle=none;shape=connector;rounded=0;orthogonalLoop=1;jettySize=auto;html=1;strokeColor=default;align=center;verticalAlign=middle;fontFamily=Inter;fontSize=13;fontColor=default;labelBackgroundColor=default;startSize=5;endArrow=classic;endSize=5;exitX=0;exitY=1;exitDx=0;exitDy=0;fontSource=https%3A%2F%2Ffonts.googleapis.com%2Fcss%3Ffamily%3DInter;entryX=0;entryY=0;entryDx=0;entryDy=0;" edge="1" parent="1" source="xsylyKW9c_CY92pPQaib-14" target="xsylyKW9c_CY92pPQaib-17">
          <mxGeometry relative="1" as="geometry">
            <mxPoint x="367.5" y="250.0000000000001" as="sourcePoint" />
            <mxPoint x="521.8390804597701" y="250" as="targetPoint" />
          </mxGeometry>
        </mxCell>
        <mxCell id="xsylyKW9c_CY92pPQaib-14" value="mostrar()" style="text;html=1;align=center;verticalAlign=middle;whiteSpace=wrap;rounded=0;fontFamily=Inter;fontSource=https%3A%2F%2Ffonts.googleapis.com%2Fcss%3Ffamily%3DInter;" vertex="1" parent="1">
          <mxGeometry x="367.5" y="230" width="145" height="20" as="geometry" />
        </mxCell>
        <mxCell id="xsylyKW9c_CY92pPQaib-15" value="" style="endArrow=none;html=1;rounded=0;strokeColor=default;align=center;verticalAlign=middle;fontFamily=Inter;fontSize=12;fontColor=default;labelBackgroundColor=none;startSize=5;endSize=5;opacity=50;dashed=1;entryX=0.5;entryY=1;entryDx=0;entryDy=0;fontSource=https%3A%2F%2Ffonts.googleapis.com%2Fcss%3Ffamily%3DInter;" edge="1" parent="1">
          <mxGeometry width="50" height="50" relative="1" as="geometry">
            <mxPoint x="520" y="440" as="sourcePoint" />
            <mxPoint x="520" y="80" as="targetPoint" />
          </mxGeometry>
        </mxCell>
        <mxCell id="xsylyKW9c_CY92pPQaib-16" value="QDialog" style="text;html=1;align=center;verticalAlign=middle;whiteSpace=wrap;rounded=0;fontFamily=Inter;fontSize=14;fontColor=default;labelBackgroundColor=none;fontSource=https%3A%2F%2Ffonts.googleapis.com%2Fcss%3Ffamily%3DInter;" vertex="1" parent="1">
          <mxGeometry x="460" y="40" width="120" height="40" as="geometry" />
        </mxCell>
        <mxCell id="xsylyKW9c_CY92pPQaib-17" value="" style="rounded=0;whiteSpace=wrap;html=1;fontFamily=Inter;fontSource=https%3A%2F%2Ffonts.googleapis.com%2Fcss%3Ffamily%3DInter;" vertex="1" parent="1">
          <mxGeometry x="512.5" y="250" width="15" height="80" as="geometry" />
        </mxCell>
        <mxCell id="RtkFkXVT3y7Tw0cq_69P-1" value="" style="rounded=0;whiteSpace=wrap;html=1;fontFamily=Inter;fontSource=https%3A%2F%2Ffonts.googleapis.com%2Fcss%3Ffamily%3DInter;" vertex="1" parent="1">
          <mxGeometry x="352.5" y="330" width="15" height="40" as="geometry" />
        </mxCell>
        <mxCell id="RtkFkXVT3y7Tw0cq_69P-2" style="edgeStyle=none;shape=connector;rounded=0;orthogonalLoop=1;jettySize=auto;html=1;strokeColor=default;align=center;verticalAlign=middle;fontFamily=Inter;fontSize=13;fontColor=default;labelBackgroundColor=default;startSize=5;endArrow=classic;endSize=5;exitX=0;exitY=1;exitDx=0;exitDy=0;fontSource=https%3A%2F%2Ffonts.googleapis.com%2Fcss%3Ffamily%3DInter;entryX=1;entryY=0;entryDx=0;entryDy=0;" edge="1" parent="1" target="RtkFkXVT3y7Tw0cq_69P-1">
          <mxGeometry relative="1" as="geometry">
            <mxPoint x="512.5" y="330.0000000000001" as="sourcePoint" />
            <mxPoint x="440" y="380" as="targetPoint" />
          </mxGeometry>
        </mxCell>
        <mxCell id="RtkFkXVT3y7Tw0cq_69P-3" value="ruta_seleccionada" style="text;html=1;align=center;verticalAlign=middle;whiteSpace=wrap;rounded=0;fontFamily=Inter;fontSource=https%3A%2F%2Ffonts.googleapis.com%2Fcss%3Ffamily%3DInter;" vertex="1" parent="1">
          <mxGeometry x="367.5" y="310" width="145" height="20" as="geometry" />
        </mxCell>
        <mxCell id="RtkFkXVT3y7Tw0cq_69P-4" value="" style="endArrow=none;html=1;rounded=0;strokeColor=default;align=center;verticalAlign=middle;fontFamily=Inter;fontSize=12;fontColor=default;labelBackgroundColor=none;startSize=5;endSize=5;opacity=50;dashed=1;entryX=0.5;entryY=1;entryDx=0;entryDy=0;fontSource=https%3A%2F%2Ffonts.googleapis.com%2Fcss%3Ffamily%3DInter;" edge="1" parent="1">
          <mxGeometry width="50" height="50" relative="1" as="geometry">
            <mxPoint x="680" y="440" as="sourcePoint" />
            <mxPoint x="680" y="80" as="targetPoint" />
          </mxGeometry>
        </mxCell>
        <mxCell id="RtkFkXVT3y7Tw0cq_69P-5" value="" style="rounded=0;whiteSpace=wrap;html=1;fontFamily=Inter;fontSource=https%3A%2F%2Ffonts.googleapis.com%2Fcss%3Ffamily%3DInter;" vertex="1" parent="1">
          <mxGeometry x="672.5" y="370" width="15" height="40" as="geometry" />
        </mxCell>
        <mxCell id="RtkFkXVT3y7Tw0cq_69P-6" value="JSON Manager" style="text;html=1;align=center;verticalAlign=middle;whiteSpace=wrap;rounded=0;fontFamily=Inter;fontSize=14;fontColor=default;labelBackgroundColor=none;fontSource=https%3A%2F%2Ffonts.googleapis.com%2Fcss%3Ffamily%3DInter;" vertex="1" parent="1">
          <mxGeometry x="620" y="40" width="120" height="40" as="geometry" />
        </mxCell>
        <mxCell id="RtkFkXVT3y7Tw0cq_69P-7" style="edgeStyle=none;shape=connector;rounded=0;orthogonalLoop=1;jettySize=auto;html=1;strokeColor=default;align=center;verticalAlign=middle;fontFamily=Inter;fontSize=13;fontColor=default;labelBackgroundColor=default;startSize=5;endArrow=classic;endSize=5;exitX=1;exitY=1;exitDx=0;exitDy=0;fontSource=https%3A%2F%2Ffonts.googleapis.com%2Fcss%3Ffamily%3DInter;entryX=0;entryY=0;entryDx=0;entryDy=0;" edge="1" parent="1" source="RtkFkXVT3y7Tw0cq_69P-1" target="RtkFkXVT3y7Tw0cq_69P-5">
          <mxGeometry relative="1" as="geometry">
            <mxPoint x="513" y="370" as="sourcePoint" />
            <mxPoint x="620" y="370" as="targetPoint" />
          </mxGeometry>
        </mxCell>
        <mxCell id="RtkFkXVT3y7Tw0cq_69P-8" value="exportar(ruta_seleccionada, perfiles_seleccionados)" style="text;html=1;align=center;verticalAlign=middle;whiteSpace=wrap;rounded=0;fontFamily=Inter;fontSource=https%3A%2F%2Ffonts.googleapis.com%2Fcss%3Ffamily%3DInter;" vertex="1" parent="1">
          <mxGeometry x="367.5" y="350" width="305" height="20" as="geometry" />
        </mxCell>
        <mxCell id="Y9gQyhB2_xH7Sl-MOQJs-1" value="" style="rounded=0;whiteSpace=wrap;html=1;" vertex="1" parent="1">
          <mxGeometry x="32.5" y="130" width="15" height="160" as="geometry" />
        </mxCell>
        <mxCell id="MWXrk-VT7kh9MXcvtk2b-1" style="edgeStyle=none;shape=connector;rounded=0;orthogonalLoop=1;jettySize=auto;html=1;strokeColor=default;align=center;verticalAlign=middle;fontFamily=Inter;fontSize=13;fontColor=default;labelBackgroundColor=default;startSize=5;endArrow=classic;endSize=5;exitX=1;exitY=0.5;exitDx=0;exitDy=0;entryX=0;entryY=0.5;entryDx=0;entryDy=0;fontSource=https%3A%2F%2Ffonts.googleapis.com%2Fcss%3Ffamily%3DInter;" edge="1" parent="1" source="Y9gQyhB2_xH7Sl-MOQJs-1" target="xsylyKW9c_CY92pPQaib-12">
          <mxGeometry relative="1" as="geometry">
            <mxPoint x="48" y="210" as="sourcePoint" />
            <mxPoint x="193" y="210" as="targetPoint" />
          </mxGeometry>
        </mxCell>
        <mxCell id="MWXrk-VT7kh9MXcvtk2b-2" value="&lt;div&gt;Seleccionar perfiles&lt;/div&gt;" style="text;html=1;align=center;verticalAlign=middle;whiteSpace=wrap;rounded=0;fontFamily=Inter;fontSource=https%3A%2F%2Ffonts.googleapis.com%2Fcss%3Ffamily%3DInter;" vertex="1" parent="1">
          <mxGeometry x="40" y="190" width="160" height="20" as="geometry" />
        </mxCell>
        <mxCell id="b0wjhGz9gWfXIJ5eAAyI-2" style="edgeStyle=none;shape=connector;rounded=0;orthogonalLoop=1;jettySize=auto;html=1;strokeColor=default;align=center;verticalAlign=middle;fontFamily=Inter;fontSize=13;fontColor=default;labelBackgroundColor=default;startSize=5;endArrow=classic;endSize=5;exitX=1;exitY=1;exitDx=0;exitDy=0;entryX=0;entryY=0.5;entryDx=0;entryDy=0;fontSource=https%3A%2F%2Ffonts.googleapis.com%2Fcss%3Ffamily%3DInter;" edge="1" parent="1" source="Y9gQyhB2_xH7Sl-MOQJs-1" target="xsylyKW9c_CY92pPQaib-17">
          <mxGeometry relative="1" as="geometry">
            <mxPoint x="45.5" y="289.31" as="sourcePoint" />
            <mxPoint x="350.5" y="289.31" as="targetPoint" />
          </mxGeometry>
        </mxCell>
        <mxCell id="b0wjhGz9gWfXIJ5eAAyI-3" value="&lt;div&gt;Seleccionar ruta&lt;/div&gt;" style="text;html=1;align=center;verticalAlign=middle;whiteSpace=wrap;rounded=0;fontFamily=Inter;fontSource=https%3A%2F%2Ffonts.googleapis.com%2Fcss%3Ffamily%3DInter;" vertex="1" parent="1">
          <mxGeometry x="40" y="270" width="160" height="20" as="geometry" />
        </mxCell>
      </root>
    </mxGraphModel>
  </diagram>
  <diagram id="RCOcMeFdf78_tfwMgPS3" name="importar">
    <mxGraphModel dx="1588" dy="948" grid="1" gridSize="10" guides="1" tooltips="1" connect="1" arrows="1" fold="1" page="1" pageScale="1" pageWidth="827" pageHeight="1169" math="0" shadow="0">
      <root>
        <mxCell id="0" />
        <mxCell id="1" parent="0" />
        <mxCell id="UM3t5yGIYnzHwMEv6DSm-1" value="&lt;font data-font-src=&quot;https://fonts.googleapis.com/css?family=Inter&quot; face=&quot;Inter&quot;&gt;Usuario&lt;/font&gt;" style="shape=umlActor;verticalLabelPosition=bottom;verticalAlign=top;html=1;outlineConnect=0;fontSize=14;fontFamily=Inter;fontSource=https%3A%2F%2Ffonts.googleapis.com%2Fcss%3Ffamily%3DInter;" vertex="1" parent="1">
          <mxGeometry x="30" y="30" width="20" height="40" as="geometry" />
        </mxCell>
        <mxCell id="UM3t5yGIYnzHwMEv6DSm-2" value="" style="endArrow=none;html=1;rounded=0;strokeColor=default;align=center;verticalAlign=middle;fontFamily=Inter;fontSize=12;fontColor=default;labelBackgroundColor=none;startSize=5;endSize=5;opacity=50;dashed=1;entryX=0.5;entryY=1;entryDx=0;entryDy=0;fontSource=https%3A%2F%2Ffonts.googleapis.com%2Fcss%3Ffamily%3DInter;" edge="1" parent="1">
          <mxGeometry width="50" height="50" relative="1" as="geometry">
            <mxPoint x="200" y="400" as="sourcePoint" />
            <mxPoint x="200" y="80" as="targetPoint" />
          </mxGeometry>
        </mxCell>
        <mxCell id="UM3t5yGIYnzHwMEv6DSm-3" value="&lt;font face=&quot;Inter&quot;&gt;Ventana principal&lt;/font&gt;" style="text;html=1;align=center;verticalAlign=middle;whiteSpace=wrap;rounded=0;fontFamily=Inter;fontSize=14;fontColor=default;labelBackgroundColor=none;fontSource=https%3A%2F%2Ffonts.googleapis.com%2Fcss%3Ffamily%3DInter;" vertex="1" parent="1">
          <mxGeometry x="140" y="40" width="120" height="40" as="geometry" />
        </mxCell>
        <mxCell id="UM3t5yGIYnzHwMEv6DSm-4" value="" style="endArrow=none;html=1;rounded=0;strokeColor=default;align=center;verticalAlign=middle;fontFamily=Inter;fontSize=12;fontColor=default;labelBackgroundColor=none;startSize=5;endSize=5;opacity=50;dashed=1;fontSource=https%3A%2F%2Ffonts.googleapis.com%2Fcss%3Ffamily%3DInter;" edge="1" parent="1">
          <mxGeometry width="50" height="50" relative="1" as="geometry">
            <mxPoint x="40" y="400" as="sourcePoint" />
            <mxPoint x="40" y="100" as="targetPoint" />
          </mxGeometry>
        </mxCell>
        <mxCell id="UM3t5yGIYnzHwMEv6DSm-5" style="edgeStyle=none;shape=connector;rounded=0;orthogonalLoop=1;jettySize=auto;html=1;strokeColor=default;align=center;verticalAlign=middle;fontFamily=Inter;fontSize=13;fontColor=default;labelBackgroundColor=default;startSize=5;endArrow=classic;endSize=5;exitX=1;exitY=0;exitDx=0;exitDy=0;entryX=0;entryY=0;entryDx=0;entryDy=0;fontSource=https%3A%2F%2Ffonts.googleapis.com%2Fcss%3Ffamily%3DInter;" edge="1" parent="1" source="UM3t5yGIYnzHwMEv6DSm-26" target="UM3t5yGIYnzHwMEv6DSm-6">
          <mxGeometry relative="1" as="geometry">
            <mxPoint x="40" y="130" as="sourcePoint" />
            <mxPoint x="130" y="130" as="targetPoint" />
          </mxGeometry>
        </mxCell>
        <mxCell id="UM3t5yGIYnzHwMEv6DSm-6" value="" style="rounded=0;whiteSpace=wrap;html=1;fontFamily=Inter;fontSource=https%3A%2F%2Ffonts.googleapis.com%2Fcss%3Ffamily%3DInter;" vertex="1" parent="1">
          <mxGeometry x="192.5" y="130" width="15" height="40" as="geometry" />
        </mxCell>
        <mxCell id="UM3t5yGIYnzHwMEv6DSm-7" value="Importar perfiles" style="text;html=1;align=center;verticalAlign=middle;whiteSpace=wrap;rounded=0;fontFamily=Inter;fontSource=https%3A%2F%2Ffonts.googleapis.com%2Fcss%3Ffamily%3DInter;" vertex="1" parent="1">
          <mxGeometry x="40" y="110" width="160" height="20" as="geometry" />
        </mxCell>
        <mxCell id="UM3t5yGIYnzHwMEv6DSm-8" style="edgeStyle=none;shape=connector;rounded=0;orthogonalLoop=1;jettySize=auto;html=1;strokeColor=default;align=center;verticalAlign=middle;fontFamily=Inter;fontSize=13;fontColor=default;labelBackgroundColor=default;startSize=5;endArrow=classic;endSize=5;exitX=1;exitY=1;exitDx=0;exitDy=0;entryX=0;entryY=0;entryDx=0;entryDy=0;fontSource=https%3A%2F%2Ffonts.googleapis.com%2Fcss%3Ffamily%3DInter;" edge="1" parent="1" source="UM3t5yGIYnzHwMEv6DSm-6" target="UM3t5yGIYnzHwMEv6DSm-12">
          <mxGeometry relative="1" as="geometry">
            <mxPoint x="207.5" y="150" as="sourcePoint" />
            <mxPoint x="340.5" y="150" as="targetPoint" />
          </mxGeometry>
        </mxCell>
        <mxCell id="UM3t5yGIYnzHwMEv6DSm-9" value="mostrar()" style="text;html=1;align=center;verticalAlign=middle;whiteSpace=wrap;rounded=0;fontFamily=Inter;fontSource=https%3A%2F%2Ffonts.googleapis.com%2Fcss%3Ffamily%3DInter;" vertex="1" parent="1">
          <mxGeometry x="207.5" y="150" width="145" height="20" as="geometry" />
        </mxCell>
        <mxCell id="UM3t5yGIYnzHwMEv6DSm-10" value="" style="endArrow=none;html=1;rounded=0;strokeColor=default;align=center;verticalAlign=middle;fontFamily=Inter;fontSize=12;fontColor=default;labelBackgroundColor=none;startSize=5;endSize=5;opacity=50;dashed=1;entryX=0.5;entryY=1;entryDx=0;entryDy=0;fontSource=https%3A%2F%2Ffonts.googleapis.com%2Fcss%3Ffamily%3DInter;" edge="1" parent="1">
          <mxGeometry width="50" height="50" relative="1" as="geometry">
            <mxPoint x="360" y="400" as="sourcePoint" />
            <mxPoint x="360" y="80" as="targetPoint" />
          </mxGeometry>
        </mxCell>
        <mxCell id="UM3t5yGIYnzHwMEv6DSm-12" value="" style="rounded=0;whiteSpace=wrap;html=1;fontFamily=Inter;fontSource=https%3A%2F%2Ffonts.googleapis.com%2Fcss%3Ffamily%3DInter;" vertex="1" parent="1">
          <mxGeometry x="352.5" y="170" width="15" height="80" as="geometry" />
        </mxCell>
        <mxCell id="UM3t5yGIYnzHwMEv6DSm-15" value="" style="endArrow=none;html=1;rounded=0;strokeColor=default;align=center;verticalAlign=middle;fontFamily=Inter;fontSize=12;fontColor=default;labelBackgroundColor=none;startSize=5;endSize=5;opacity=50;dashed=1;entryX=0.5;entryY=1;entryDx=0;entryDy=0;fontSource=https%3A%2F%2Ffonts.googleapis.com%2Fcss%3Ffamily%3DInter;" edge="1" parent="1">
          <mxGeometry width="50" height="50" relative="1" as="geometry">
            <mxPoint x="520" y="400" as="sourcePoint" />
            <mxPoint x="520" y="80" as="targetPoint" />
          </mxGeometry>
        </mxCell>
        <mxCell id="UM3t5yGIYnzHwMEv6DSm-16" value="QDialog" style="text;html=1;align=center;verticalAlign=middle;whiteSpace=wrap;rounded=0;fontFamily=Inter;fontSize=14;fontColor=default;labelBackgroundColor=none;fontSource=https%3A%2F%2Ffonts.googleapis.com%2Fcss%3Ffamily%3DInter;" vertex="1" parent="1">
          <mxGeometry x="300" y="40" width="120" height="40" as="geometry" />
        </mxCell>
        <mxCell id="UM3t5yGIYnzHwMEv6DSm-17" value="" style="rounded=0;whiteSpace=wrap;html=1;fontFamily=Inter;fontSource=https%3A%2F%2Ffonts.googleapis.com%2Fcss%3Ffamily%3DInter;" vertex="1" parent="1">
          <mxGeometry x="512.5" y="290" width="15" height="40" as="geometry" />
        </mxCell>
        <mxCell id="UM3t5yGIYnzHwMEv6DSm-19" style="edgeStyle=none;shape=connector;rounded=0;orthogonalLoop=1;jettySize=auto;html=1;strokeColor=default;align=center;verticalAlign=middle;fontFamily=Inter;fontSize=13;fontColor=default;labelBackgroundColor=default;startSize=5;endArrow=classic;endSize=5;exitX=0;exitY=1;exitDx=0;exitDy=0;fontSource=https%3A%2F%2Ffonts.googleapis.com%2Fcss%3Ffamily%3DInter;entryX=1;entryY=0;entryDx=0;entryDy=0;" edge="1" parent="1" target="UM3t5yGIYnzHwMEv6DSm-31" source="UM3t5yGIYnzHwMEv6DSm-12">
          <mxGeometry relative="1" as="geometry">
            <mxPoint x="345" y="249.7200000000001" as="sourcePoint" />
            <mxPoint x="230" y="260" as="targetPoint" />
          </mxGeometry>
        </mxCell>
        <mxCell id="UM3t5yGIYnzHwMEv6DSm-20" value="archivo_seleccionado" style="text;html=1;align=center;verticalAlign=middle;whiteSpace=wrap;rounded=0;fontFamily=Inter;fontSource=https%3A%2F%2Ffonts.googleapis.com%2Fcss%3Ffamily%3DInter;" vertex="1" parent="1">
          <mxGeometry x="200" y="229.72" width="160" height="20" as="geometry" />
        </mxCell>
        <mxCell id="UM3t5yGIYnzHwMEv6DSm-23" value="JSON Manager" style="text;html=1;align=center;verticalAlign=middle;whiteSpace=wrap;rounded=0;fontFamily=Inter;fontSize=14;fontColor=default;labelBackgroundColor=none;fontSource=https%3A%2F%2Ffonts.googleapis.com%2Fcss%3Ffamily%3DInter;" vertex="1" parent="1">
          <mxGeometry x="460" y="40" width="120" height="40" as="geometry" />
        </mxCell>
        <mxCell id="UM3t5yGIYnzHwMEv6DSm-25" value="importar(archivo_seleccionado)" style="text;html=1;align=center;verticalAlign=middle;whiteSpace=wrap;rounded=0;fontFamily=Inter;fontSource=https%3A%2F%2Ffonts.googleapis.com%2Fcss%3Ffamily%3DInter;" vertex="1" parent="1">
          <mxGeometry x="207.5" y="270" width="305" height="20" as="geometry" />
        </mxCell>
        <mxCell id="UM3t5yGIYnzHwMEv6DSm-26" value="" style="rounded=0;whiteSpace=wrap;html=1;" vertex="1" parent="1">
          <mxGeometry x="32.5" y="130" width="15" height="80" as="geometry" />
        </mxCell>
        <mxCell id="UM3t5yGIYnzHwMEv6DSm-27" style="edgeStyle=none;shape=connector;rounded=0;orthogonalLoop=1;jettySize=auto;html=1;strokeColor=default;align=center;verticalAlign=middle;fontFamily=Inter;fontSize=13;fontColor=default;labelBackgroundColor=default;startSize=5;endArrow=classic;endSize=5;exitX=1;exitY=1;exitDx=0;exitDy=0;entryX=0;entryY=0.5;entryDx=0;entryDy=0;fontSource=https%3A%2F%2Ffonts.googleapis.com%2Fcss%3Ffamily%3DInter;" edge="1" parent="1" source="UM3t5yGIYnzHwMEv6DSm-26" target="UM3t5yGIYnzHwMEv6DSm-12">
          <mxGeometry relative="1" as="geometry">
            <mxPoint x="48" y="210" as="sourcePoint" />
            <mxPoint x="193" y="210" as="targetPoint" />
          </mxGeometry>
        </mxCell>
        <mxCell id="UM3t5yGIYnzHwMEv6DSm-28" value="&lt;div&gt;Seleccionar archivo&lt;/div&gt;" style="text;html=1;align=center;verticalAlign=middle;whiteSpace=wrap;rounded=0;fontFamily=Inter;fontSource=https%3A%2F%2Ffonts.googleapis.com%2Fcss%3Ffamily%3DInter;" vertex="1" parent="1">
          <mxGeometry x="40" y="190" width="160" height="20" as="geometry" />
        </mxCell>
        <mxCell id="UM3t5yGIYnzHwMEv6DSm-29" style="edgeStyle=none;shape=connector;rounded=0;orthogonalLoop=1;jettySize=auto;html=1;strokeColor=default;align=center;verticalAlign=middle;fontFamily=Inter;fontSize=13;fontColor=default;labelBackgroundColor=default;startSize=5;endArrow=classic;endSize=5;exitX=1;exitY=1;exitDx=0;exitDy=0;entryX=0;entryY=0;entryDx=0;entryDy=0;fontSource=https%3A%2F%2Ffonts.googleapis.com%2Fcss%3Ffamily%3DInter;" edge="1" parent="1" source="UM3t5yGIYnzHwMEv6DSm-31" target="UM3t5yGIYnzHwMEv6DSm-17">
          <mxGeometry relative="1" as="geometry">
            <mxPoint x="45.5" y="289.31" as="sourcePoint" />
            <mxPoint x="350.5" y="289.31" as="targetPoint" />
          </mxGeometry>
        </mxCell>
        <mxCell id="UM3t5yGIYnzHwMEv6DSm-31" value="" style="rounded=0;whiteSpace=wrap;html=1;fontFamily=Inter;fontSource=https%3A%2F%2Ffonts.googleapis.com%2Fcss%3Ffamily%3DInter;" vertex="1" parent="1">
          <mxGeometry x="192.5" y="249.72" width="15" height="40" as="geometry" />
        </mxCell>
        <mxCell id="fD6aGepOLwMXvlDntMW7-1" value="" style="rounded=0;whiteSpace=wrap;html=1;fontFamily=Inter;fontSource=https%3A%2F%2Ffonts.googleapis.com%2Fcss%3Ffamily%3DInter;" vertex="1" parent="1">
          <mxGeometry x="192.5" y="330" width="15" height="40" as="geometry" />
        </mxCell>
        <mxCell id="fD6aGepOLwMXvlDntMW7-2" value="&lt;div&gt;actualizar()&lt;/div&gt;" style="text;html=1;align=center;verticalAlign=middle;whiteSpace=wrap;rounded=0;fontFamily=Inter;fontSource=https%3A%2F%2Ffonts.googleapis.com%2Fcss%3Ffamily%3DInter;" vertex="1" parent="1">
          <mxGeometry x="207.5" y="310" width="305" height="20" as="geometry" />
        </mxCell>
        <mxCell id="fD6aGepOLwMXvlDntMW7-3" style="edgeStyle=none;shape=connector;rounded=0;orthogonalLoop=1;jettySize=auto;html=1;strokeColor=default;align=center;verticalAlign=middle;fontFamily=Inter;fontSize=13;fontColor=default;labelBackgroundColor=default;startSize=5;endArrow=classic;endSize=5;entryX=1;entryY=0;entryDx=0;entryDy=0;fontSource=https%3A%2F%2Ffonts.googleapis.com%2Fcss%3Ffamily%3DInter;exitX=0;exitY=1;exitDx=0;exitDy=0;" edge="1" parent="1" source="UM3t5yGIYnzHwMEv6DSm-17" target="fD6aGepOLwMXvlDntMW7-1">
          <mxGeometry relative="1" as="geometry">
            <mxPoint x="500" y="410" as="sourcePoint" />
            <mxPoint x="513" y="329.52" as="targetPoint" />
          </mxGeometry>
        </mxCell>
      </root>
    </mxGraphModel>
  </diagram>
  <diagram id="4PWgx5ZM5hxXoJ2YcpZI" name="contraseÃ±a">
    <mxGraphModel dx="900" dy="537" grid="1" gridSize="10" guides="1" tooltips="1" connect="1" arrows="1" fold="1" page="1" pageScale="1" pageWidth="827" pageHeight="1169" math="0" shadow="0">
      <root>
        <mxCell id="0" />
        <mxCell id="1" parent="0" />
        <mxCell id="E62hKa7l8fIinOMz5gYW-1" value="&lt;font data-font-src=&quot;https://fonts.googleapis.com/css?family=Inter&quot; face=&quot;Inter&quot;&gt;Usuario&lt;/font&gt;" style="shape=umlActor;verticalLabelPosition=bottom;verticalAlign=top;html=1;outlineConnect=0;fontSize=14;" vertex="1" parent="1">
          <mxGeometry x="30" y="30" width="20" height="40" as="geometry" />
        </mxCell>
        <mxCell id="E62hKa7l8fIinOMz5gYW-2" value="" style="endArrow=none;html=1;rounded=0;strokeColor=default;align=center;verticalAlign=middle;fontFamily=Helvetica;fontSize=12;fontColor=default;labelBackgroundColor=none;startSize=5;endSize=5;opacity=50;dashed=1;entryX=0.5;entryY=1;entryDx=0;entryDy=0;" edge="1" parent="1">
          <mxGeometry width="50" height="50" relative="1" as="geometry">
            <mxPoint x="200" y="360" as="sourcePoint" />
            <mxPoint x="200" y="80" as="targetPoint" />
          </mxGeometry>
        </mxCell>
        <mxCell id="E62hKa7l8fIinOMz5gYW-3" value="&lt;font face=&quot;Inter&quot;&gt;Ventana principal&lt;/font&gt;" style="text;html=1;align=center;verticalAlign=middle;whiteSpace=wrap;rounded=0;fontFamily=Helvetica;fontSize=14;fontColor=default;labelBackgroundColor=none;" vertex="1" parent="1">
          <mxGeometry x="140" y="40" width="120" height="40" as="geometry" />
        </mxCell>
        <mxCell id="E62hKa7l8fIinOMz5gYW-4" value="" style="endArrow=none;html=1;rounded=0;strokeColor=default;align=center;verticalAlign=middle;fontFamily=Helvetica;fontSize=12;fontColor=default;labelBackgroundColor=none;startSize=5;endSize=5;opacity=50;dashed=1;" edge="1" parent="1">
          <mxGeometry width="50" height="50" relative="1" as="geometry">
            <mxPoint x="40" y="360" as="sourcePoint" />
            <mxPoint x="40" y="100" as="targetPoint" />
          </mxGeometry>
        </mxCell>
        <mxCell id="E62hKa7l8fIinOMz5gYW-5" style="edgeStyle=none;shape=connector;rounded=0;orthogonalLoop=1;jettySize=auto;html=1;strokeColor=default;align=center;verticalAlign=middle;fontFamily=Helvetica;fontSize=13;fontColor=default;labelBackgroundColor=default;startSize=5;endArrow=classic;endSize=5;exitX=1;exitY=0;exitDx=0;exitDy=0;entryX=0;entryY=0;entryDx=0;entryDy=0;" edge="1" parent="1" source="E62hKa7l8fIinOMz5gYW-20" target="E62hKa7l8fIinOMz5gYW-6">
          <mxGeometry relative="1" as="geometry">
            <mxPoint x="40" y="130" as="sourcePoint" />
            <mxPoint x="130" y="130" as="targetPoint" />
          </mxGeometry>
        </mxCell>
        <mxCell id="E62hKa7l8fIinOMz5gYW-6" value="" style="rounded=0;whiteSpace=wrap;html=1;" vertex="1" parent="1">
          <mxGeometry x="192.5" y="130" width="15" height="40" as="geometry" />
        </mxCell>
        <mxCell id="E62hKa7l8fIinOMz5gYW-7" value="Ver contraseÃ±a" style="text;html=1;align=center;verticalAlign=middle;whiteSpace=wrap;rounded=0;fontFamily=Inter;fontSource=https%3A%2F%2Ffonts.googleapis.com%2Fcss%3Ffamily%3DInter;" vertex="1" parent="1">
          <mxGeometry x="40" y="110" width="160" height="20" as="geometry" />
        </mxCell>
        <mxCell id="E62hKa7l8fIinOMz5gYW-8" style="edgeStyle=none;shape=connector;rounded=0;orthogonalLoop=1;jettySize=auto;html=1;strokeColor=default;align=center;verticalAlign=middle;fontFamily=Helvetica;fontSize=13;fontColor=default;labelBackgroundColor=default;startSize=5;endArrow=classic;endSize=5;exitX=1;exitY=0.5;exitDx=0;exitDy=0;entryX=0;entryY=0;entryDx=0;entryDy=0;" edge="1" parent="1" target="E62hKa7l8fIinOMz5gYW-12">
          <mxGeometry relative="1" as="geometry">
            <mxPoint x="207.5" y="170" as="sourcePoint" />
            <mxPoint x="340.5" y="170" as="targetPoint" />
          </mxGeometry>
        </mxCell>
        <mxCell id="E62hKa7l8fIinOMz5gYW-9" value="mostrar()" style="text;html=1;align=center;verticalAlign=middle;whiteSpace=wrap;rounded=0;fontFamily=Inter;fontSource=https%3A%2F%2Ffonts.googleapis.com%2Fcss%3Ffamily%3DInter;" vertex="1" parent="1">
          <mxGeometry x="207.5" y="150" width="142.5" height="20" as="geometry" />
        </mxCell>
        <mxCell id="E62hKa7l8fIinOMz5gYW-10" value="" style="endArrow=none;html=1;rounded=0;strokeColor=default;align=center;verticalAlign=middle;fontFamily=Helvetica;fontSize=12;fontColor=default;labelBackgroundColor=none;startSize=5;endSize=5;opacity=50;dashed=1;entryX=0.5;entryY=1;entryDx=0;entryDy=0;" edge="1" parent="1">
          <mxGeometry width="50" height="50" relative="1" as="geometry">
            <mxPoint x="360" y="360" as="sourcePoint" />
            <mxPoint x="360" y="80" as="targetPoint" />
          </mxGeometry>
        </mxCell>
        <mxCell id="E62hKa7l8fIinOMz5gYW-11" value="&lt;font face=&quot;Inter&quot;&gt;Ventana contraseÃ±a&lt;/font&gt;" style="text;html=1;align=center;verticalAlign=middle;whiteSpace=wrap;rounded=0;fontFamily=Helvetica;fontSize=14;fontColor=default;labelBackgroundColor=none;" vertex="1" parent="1">
          <mxGeometry x="290" y="40" width="140" height="40" as="geometry" />
        </mxCell>
        <mxCell id="E62hKa7l8fIinOMz5gYW-12" value="" style="rounded=0;whiteSpace=wrap;html=1;" vertex="1" parent="1">
          <mxGeometry x="352.5" y="170" width="15" height="160" as="geometry" />
        </mxCell>
        <mxCell id="E62hKa7l8fIinOMz5gYW-13" value="" style="endArrow=none;html=1;rounded=0;strokeColor=default;align=center;verticalAlign=middle;fontFamily=Helvetica;fontSize=12;fontColor=default;labelBackgroundColor=none;startSize=5;endSize=5;opacity=50;dashed=1;entryX=0.5;entryY=1;entryDx=0;entryDy=0;" edge="1" parent="1">
          <mxGeometry width="50" height="50" relative="1" as="geometry">
            <mxPoint x="560" y="360" as="sourcePoint" />
            <mxPoint x="560" y="80" as="targetPoint" />
          </mxGeometry>
        </mxCell>
        <mxCell id="E62hKa7l8fIinOMz5gYW-14" value="&lt;font face=&quot;Inter&quot;&gt;PWM Box&lt;/font&gt;" style="text;html=1;align=center;verticalAlign=middle;whiteSpace=wrap;rounded=0;fontFamily=Helvetica;fontSize=14;fontColor=default;labelBackgroundColor=none;" vertex="1" parent="1">
          <mxGeometry x="500" y="40" width="120" height="40" as="geometry" />
        </mxCell>
        <mxCell id="E62hKa7l8fIinOMz5gYW-15" value="" style="rounded=0;whiteSpace=wrap;html=1;" vertex="1" parent="1">
          <mxGeometry x="552.5" y="210" width="15" height="40" as="geometry" />
        </mxCell>
        <mxCell id="E62hKa7l8fIinOMz5gYW-16" style="edgeStyle=none;shape=connector;rounded=0;orthogonalLoop=1;jettySize=auto;html=1;strokeColor=default;align=center;verticalAlign=middle;fontFamily=Helvetica;fontSize=13;fontColor=default;labelBackgroundColor=default;startSize=5;endArrow=classic;endSize=5;entryX=0;entryY=0;entryDx=0;entryDy=0;exitX=1;exitY=1;exitDx=0;exitDy=0;" edge="1" parent="1" target="E62hKa7l8fIinOMz5gYW-15">
          <mxGeometry relative="1" as="geometry">
            <mxPoint x="367.5" y="210" as="sourcePoint" />
            <mxPoint x="360" y="210" as="targetPoint" />
          </mxGeometry>
        </mxCell>
        <mxCell id="E62hKa7l8fIinOMz5gYW-18" style="edgeStyle=none;shape=connector;rounded=0;orthogonalLoop=1;jettySize=auto;html=1;strokeColor=default;align=center;verticalAlign=middle;fontFamily=Helvetica;fontSize=13;fontColor=default;labelBackgroundColor=default;startSize=5;endArrow=classic;endSize=5;exitX=1;exitY=1;exitDx=0;exitDy=0;entryX=0;entryY=0.5;entryDx=0;entryDy=0;" edge="1" parent="1" source="E62hKa7l8fIinOMz5gYW-20">
          <mxGeometry relative="1" as="geometry">
            <mxPoint x="47.5" y="289.6" as="sourcePoint" />
            <mxPoint x="352.5" y="289.6" as="targetPoint" />
          </mxGeometry>
        </mxCell>
        <mxCell id="E62hKa7l8fIinOMz5gYW-19" value="Cambiar contraseÃ±a" style="text;html=1;align=center;verticalAlign=middle;whiteSpace=wrap;rounded=0;fontFamily=Inter;fontSource=https%3A%2F%2Ffonts.googleapis.com%2Fcss%3Ffamily%3DInter;" vertex="1" parent="1">
          <mxGeometry x="40" y="269.6" width="160" height="20" as="geometry" />
        </mxCell>
        <mxCell id="E62hKa7l8fIinOMz5gYW-20" value="" style="rounded=0;whiteSpace=wrap;html=1;" vertex="1" parent="1">
          <mxGeometry x="32.5" y="130" width="15" height="160" as="geometry" />
        </mxCell>
        <mxCell id="bmfQDJhTJP9OpshGc_qu-1" value="recibir_contraseÃ±a()" style="text;html=1;align=center;verticalAlign=middle;whiteSpace=wrap;rounded=0;fontFamily=Inter;fontSource=https%3A%2F%2Ffonts.googleapis.com%2Fcss%3Ffamily%3DInter;" vertex="1" parent="1">
          <mxGeometry x="360" y="190" width="200" height="20" as="geometry" />
        </mxCell>
        <mxCell id="KhIC0llPtQXAK_d-oowX-1" value="contraseÃ±a" style="text;html=1;align=center;verticalAlign=middle;whiteSpace=wrap;rounded=0;fontFamily=Inter;fontSource=https%3A%2F%2Ffonts.googleapis.com%2Fcss%3Ffamily%3DInter;" vertex="1" parent="1">
          <mxGeometry x="360" y="230" width="200" height="20" as="geometry" />
        </mxCell>
        <mxCell id="KhIC0llPtQXAK_d-oowX-2" style="edgeStyle=none;shape=connector;rounded=0;orthogonalLoop=1;jettySize=auto;html=1;strokeColor=default;align=center;verticalAlign=middle;fontFamily=Inter;fontSize=13;fontColor=default;labelBackgroundColor=default;startSize=5;endArrow=classic;endSize=5;entryX=1;entryY=0.5;entryDx=0;entryDy=0;fontSource=https%3A%2F%2Ffonts.googleapis.com%2Fcss%3Ffamily%3DInter;exitX=0;exitY=1;exitDx=0;exitDy=0;" edge="1" parent="1" source="E62hKa7l8fIinOMz5gYW-15" target="E62hKa7l8fIinOMz5gYW-12">
          <mxGeometry relative="1" as="geometry">
            <mxPoint x="775.5" y="300" as="sourcePoint" />
            <mxPoint x="470.5" y="300" as="targetPoint" />
          </mxGeometry>
        </mxCell>
        <mxCell id="xvU2YzTXMwSDrQEteLt4-1" style="edgeStyle=none;shape=connector;rounded=0;orthogonalLoop=1;jettySize=auto;html=1;strokeColor=default;align=center;verticalAlign=middle;fontFamily=Helvetica;fontSize=13;fontColor=default;labelBackgroundColor=default;startSize=5;endArrow=classic;endSize=5;exitX=1;exitY=1;exitDx=0;exitDy=0;" edge="1" parent="1" source="E62hKa7l8fIinOMz5gYW-12">
          <mxGeometry relative="1" as="geometry">
            <mxPoint x="367.5" y="329.43" as="sourcePoint" />
            <mxPoint x="560" y="330" as="targetPoint" />
          </mxGeometry>
        </mxCell>
        <mxCell id="xvU2YzTXMwSDrQEteLt4-2" value="enviar(nueva_contraseÃ±a)" style="text;html=1;align=center;verticalAlign=middle;whiteSpace=wrap;rounded=0;fontFamily=Inter;fontSource=https%3A%2F%2Ffonts.googleapis.com%2Fcss%3Ffamily%3DInter;" vertex="1" parent="1">
          <mxGeometry x="360" y="309.43" width="200" height="20" as="geometry" />
        </mxCell>
      </root>
    </mxGraphModel>
  </diagram>
  <diagram id="keUWZ-VTHvu_Lj3kK0Te" name="recargar">
    <mxGraphModel dx="931" dy="556" grid="1" gridSize="10" guides="1" tooltips="1" connect="1" arrows="1" fold="1" page="1" pageScale="1" pageWidth="827" pageHeight="1169" math="0" shadow="0">
      <root>
        <mxCell id="0" />
        <mxCell id="1" parent="0" />
        <mxCell id="i7XgyLas2Xvfdilfk7tj-1" value="&lt;font data-font-src=&quot;https://fonts.googleapis.com/css?family=Inter&quot; face=&quot;Inter&quot;&gt;Usuario&lt;/font&gt;" style="shape=umlActor;verticalLabelPosition=bottom;verticalAlign=top;html=1;outlineConnect=0;fontSize=14;" vertex="1" parent="1">
          <mxGeometry x="30" y="30" width="20" height="40" as="geometry" />
        </mxCell>
        <mxCell id="i7XgyLas2Xvfdilfk7tj-2" value="" style="endArrow=none;html=1;rounded=0;strokeColor=default;align=center;verticalAlign=middle;fontFamily=Helvetica;fontSize=12;fontColor=default;labelBackgroundColor=none;startSize=5;endSize=5;opacity=50;dashed=1;entryX=0.5;entryY=1;entryDx=0;entryDy=0;" edge="1" parent="1">
          <mxGeometry width="50" height="50" relative="1" as="geometry">
            <mxPoint x="200" y="440" as="sourcePoint" />
            <mxPoint x="200" y="80" as="targetPoint" />
          </mxGeometry>
        </mxCell>
        <mxCell id="i7XgyLas2Xvfdilfk7tj-3" value="&lt;font face=&quot;Inter&quot;&gt;Ventana principal&lt;/font&gt;" style="text;html=1;align=center;verticalAlign=middle;whiteSpace=wrap;rounded=0;fontFamily=Helvetica;fontSize=14;fontColor=default;labelBackgroundColor=none;" vertex="1" parent="1">
          <mxGeometry x="140" y="40" width="120" height="40" as="geometry" />
        </mxCell>
        <mxCell id="i7XgyLas2Xvfdilfk7tj-4" value="" style="endArrow=none;html=1;rounded=0;strokeColor=default;align=center;verticalAlign=middle;fontFamily=Helvetica;fontSize=12;fontColor=default;labelBackgroundColor=none;startSize=5;endSize=5;opacity=50;dashed=1;" edge="1" parent="1">
          <mxGeometry width="50" height="50" relative="1" as="geometry">
            <mxPoint x="40" y="440" as="sourcePoint" />
            <mxPoint x="40" y="100" as="targetPoint" />
          </mxGeometry>
        </mxCell>
        <mxCell id="i7XgyLas2Xvfdilfk7tj-5" style="edgeStyle=none;shape=connector;rounded=0;orthogonalLoop=1;jettySize=auto;html=1;strokeColor=default;align=center;verticalAlign=middle;fontFamily=Helvetica;fontSize=13;fontColor=default;labelBackgroundColor=default;startSize=5;endArrow=classic;endSize=5;exitX=1;exitY=0;exitDx=0;exitDy=0;entryX=0;entryY=0;entryDx=0;entryDy=0;" edge="1" parent="1" source="i7XgyLas2Xvfdilfk7tj-20" target="i7XgyLas2Xvfdilfk7tj-6">
          <mxGeometry relative="1" as="geometry">
            <mxPoint x="40" y="130" as="sourcePoint" />
            <mxPoint x="130" y="130" as="targetPoint" />
          </mxGeometry>
        </mxCell>
        <mxCell id="i7XgyLas2Xvfdilfk7tj-6" value="" style="rounded=0;whiteSpace=wrap;html=1;" vertex="1" parent="1">
          <mxGeometry x="192.5" y="130" width="15" height="40" as="geometry" />
        </mxCell>
        <mxCell id="i7XgyLas2Xvfdilfk7tj-7" value="Recargar" style="text;html=1;align=center;verticalAlign=middle;whiteSpace=wrap;rounded=0;fontFamily=Inter;fontSource=https%3A%2F%2Ffonts.googleapis.com%2Fcss%3Ffamily%3DInter;" vertex="1" parent="1">
          <mxGeometry x="40" y="110" width="160" height="20" as="geometry" />
        </mxCell>
        <mxCell id="i7XgyLas2Xvfdilfk7tj-8" style="edgeStyle=none;shape=connector;rounded=0;orthogonalLoop=1;jettySize=auto;html=1;strokeColor=default;align=center;verticalAlign=middle;fontFamily=Helvetica;fontSize=13;fontColor=default;labelBackgroundColor=default;startSize=5;endArrow=classic;endSize=5;exitX=1;exitY=0.5;exitDx=0;exitDy=0;entryX=0;entryY=0;entryDx=0;entryDy=0;" edge="1" parent="1" target="i7XgyLas2Xvfdilfk7tj-12">
          <mxGeometry relative="1" as="geometry">
            <mxPoint x="207.5" y="170" as="sourcePoint" />
            <mxPoint x="340.5" y="170" as="targetPoint" />
          </mxGeometry>
        </mxCell>
        <mxCell id="i7XgyLas2Xvfdilfk7tj-9" value="buscar_dispositivo()" style="text;html=1;align=center;verticalAlign=middle;whiteSpace=wrap;rounded=0;fontFamily=Inter;fontSource=https%3A%2F%2Ffonts.googleapis.com%2Fcss%3Ffamily%3DInter;" vertex="1" parent="1">
          <mxGeometry x="200" y="150" width="160" height="20" as="geometry" />
        </mxCell>
        <mxCell id="i7XgyLas2Xvfdilfk7tj-10" value="" style="endArrow=none;html=1;rounded=0;strokeColor=default;align=center;verticalAlign=middle;fontFamily=Helvetica;fontSize=12;fontColor=default;labelBackgroundColor=none;startSize=5;endSize=5;opacity=50;dashed=1;entryX=0.5;entryY=1;entryDx=0;entryDy=0;" edge="1" parent="1">
          <mxGeometry width="50" height="50" relative="1" as="geometry">
            <mxPoint x="360" y="440" as="sourcePoint" />
            <mxPoint x="360" y="80" as="targetPoint" />
          </mxGeometry>
        </mxCell>
        <mxCell id="i7XgyLas2Xvfdilfk7tj-11" value="&lt;font face=&quot;Inter&quot;&gt;PWM Box&lt;/font&gt;" style="text;html=1;align=center;verticalAlign=middle;whiteSpace=wrap;rounded=0;fontFamily=Helvetica;fontSize=14;fontColor=default;labelBackgroundColor=none;" vertex="1" parent="1">
          <mxGeometry x="300" y="40" width="120" height="40" as="geometry" />
        </mxCell>
        <mxCell id="i7XgyLas2Xvfdilfk7tj-12" value="" style="rounded=0;whiteSpace=wrap;html=1;" vertex="1" parent="1">
          <mxGeometry x="352.5" y="170" width="15" height="180" as="geometry" />
        </mxCell>
        <mxCell id="i7XgyLas2Xvfdilfk7tj-20" value="" style="rounded=0;whiteSpace=wrap;html=1;" vertex="1" parent="1">
          <mxGeometry x="32.5" y="130" width="15" height="40" as="geometry" />
        </mxCell>
        <mxCell id="i7XgyLas2Xvfdilfk7tj-21" style="edgeStyle=none;shape=connector;rounded=0;orthogonalLoop=1;jettySize=auto;html=1;strokeColor=default;align=center;verticalAlign=middle;fontFamily=Helvetica;fontSize=13;fontColor=default;labelBackgroundColor=default;startSize=5;endArrow=classic;endSize=5;exitX=1;exitY=0.222;exitDx=0;exitDy=0;entryX=1.001;entryY=0.333;entryDx=0;entryDy=0;exitPerimeter=0;entryPerimeter=0;" edge="1" parent="1" source="i7XgyLas2Xvfdilfk7tj-12" target="i7XgyLas2Xvfdilfk7tj-12">
          <mxGeometry relative="1" as="geometry">
            <mxPoint x="414" y="200" as="sourcePoint" />
            <mxPoint x="440" y="210" as="targetPoint" />
            <Array as="points">
              <mxPoint x="390" y="210" />
              <mxPoint x="390" y="230" />
            </Array>
          </mxGeometry>
        </mxCell>
        <mxCell id="i7XgyLas2Xvfdilfk7tj-22" value="&amp;nbsp;conectar()" style="text;html=1;align=left;verticalAlign=middle;whiteSpace=wrap;rounded=0;fontFamily=Inter;fontSource=https%3A%2F%2Ffonts.googleapis.com%2Fcss%3Ffamily%3DInter;" vertex="1" parent="1">
          <mxGeometry x="390" y="210" width="90" height="20" as="geometry" />
        </mxCell>
        <mxCell id="i7XgyLas2Xvfdilfk7tj-23" style="edgeStyle=none;shape=connector;rounded=0;orthogonalLoop=1;jettySize=auto;html=1;strokeColor=default;align=center;verticalAlign=middle;fontFamily=Helvetica;fontSize=13;fontColor=default;labelBackgroundColor=default;startSize=5;endArrow=classic;endSize=5;exitX=-0.001;exitY=0.556;exitDx=0;exitDy=0;exitPerimeter=0;entryX=1;entryY=0;entryDx=0;entryDy=0;" edge="1" parent="1" source="i7XgyLas2Xvfdilfk7tj-12" target="i7XgyLas2Xvfdilfk7tj-29">
          <mxGeometry relative="1" as="geometry">
            <mxPoint x="222" y="320" as="sourcePoint" />
            <mxPoint x="200" y="270" as="targetPoint" />
          </mxGeometry>
        </mxCell>
        <mxCell id="i7XgyLas2Xvfdilfk7tj-24" value="recibir_perfiles()" style="text;html=1;align=center;verticalAlign=middle;whiteSpace=wrap;rounded=0;fontFamily=Inter;fontSource=https%3A%2F%2Ffonts.googleapis.com%2Fcss%3Ffamily%3DInter;" vertex="1" parent="1">
          <mxGeometry x="200" y="250" width="160" height="20" as="geometry" />
        </mxCell>
        <mxCell id="i7XgyLas2Xvfdilfk7tj-25" style="edgeStyle=none;shape=connector;rounded=0;orthogonalLoop=1;jettySize=auto;html=1;strokeColor=default;align=center;verticalAlign=middle;fontFamily=Helvetica;fontSize=13;fontColor=default;labelBackgroundColor=default;startSize=5;endArrow=classic;endSize=5;exitX=-0.003;exitY=0.769;exitDx=0;exitDy=0;exitPerimeter=0;entryX=1.002;entryY=0.285;entryDx=0;entryDy=0;entryPerimeter=0;" edge="1" parent="1" target="i7XgyLas2Xvfdilfk7tj-29">
          <mxGeometry relative="1" as="geometry">
            <mxPoint x="352" y="310" as="sourcePoint" />
            <mxPoint x="200" y="310" as="targetPoint" />
          </mxGeometry>
        </mxCell>
        <mxCell id="i7XgyLas2Xvfdilfk7tj-26" value="recibir_informaciÃ³n()" style="text;html=1;align=center;verticalAlign=middle;whiteSpace=wrap;rounded=0;fontFamily=Inter;fontSource=https%3A%2F%2Ffonts.googleapis.com%2Fcss%3Ffamily%3DInter;" vertex="1" parent="1">
          <mxGeometry x="200" y="290" width="160" height="20" as="geometry" />
        </mxCell>
        <mxCell id="i7XgyLas2Xvfdilfk7tj-27" style="edgeStyle=none;shape=connector;rounded=0;orthogonalLoop=1;jettySize=auto;html=1;strokeColor=default;align=center;verticalAlign=middle;fontFamily=Helvetica;fontSize=13;fontColor=default;labelBackgroundColor=default;startSize=5;endArrow=classic;endSize=5;exitX=-0.003;exitY=0.769;exitDx=0;exitDy=0;exitPerimeter=0;entryX=0.989;entryY=0.574;entryDx=0;entryDy=0;entryPerimeter=0;" edge="1" parent="1" target="i7XgyLas2Xvfdilfk7tj-29">
          <mxGeometry relative="1" as="geometry">
            <mxPoint x="352" y="350" as="sourcePoint" />
            <mxPoint x="200" y="350" as="targetPoint" />
          </mxGeometry>
        </mxCell>
        <mxCell id="i7XgyLas2Xvfdilfk7tj-28" value="recibir_configuraciÃ³n()" style="text;html=1;align=center;verticalAlign=middle;whiteSpace=wrap;rounded=0;fontFamily=Inter;fontSource=https%3A%2F%2Ffonts.googleapis.com%2Fcss%3Ffamily%3DInter;" vertex="1" parent="1">
          <mxGeometry x="200" y="330" width="160" height="20" as="geometry" />
        </mxCell>
        <mxCell id="i7XgyLas2Xvfdilfk7tj-29" value="" style="rounded=0;whiteSpace=wrap;html=1;" vertex="1" parent="1">
          <mxGeometry x="192.5" y="270" width="15" height="140" as="geometry" />
        </mxCell>
        <mxCell id="i7XgyLas2Xvfdilfk7tj-30" style="edgeStyle=none;shape=connector;rounded=0;orthogonalLoop=1;jettySize=auto;html=1;strokeColor=default;align=center;verticalAlign=middle;fontFamily=Helvetica;fontSize=13;fontColor=default;labelBackgroundColor=default;startSize=5;endArrow=classic;endSize=5;exitX=1;exitY=0.222;exitDx=0;exitDy=0;entryX=1.001;entryY=0.333;entryDx=0;entryDy=0;exitPerimeter=0;entryPerimeter=0;" edge="1" parent="1">
          <mxGeometry relative="1" as="geometry">
            <mxPoint x="207.5" y="390" as="sourcePoint" />
            <mxPoint x="207.5" y="410" as="targetPoint" />
            <Array as="points">
              <mxPoint x="229.5" y="390" />
              <mxPoint x="229.5" y="410" />
            </Array>
          </mxGeometry>
        </mxCell>
        <mxCell id="i7XgyLas2Xvfdilfk7tj-31" value="&amp;nbsp;actualizar()" style="text;html=1;align=left;verticalAlign=middle;whiteSpace=wrap;rounded=0;fontFamily=Inter;fontSource=https%3A%2F%2Ffonts.googleapis.com%2Fcss%3Ffamily%3DInter;" vertex="1" parent="1">
          <mxGeometry x="229.5" y="390" width="90" height="20" as="geometry" />
        </mxCell>
      </root>
    </mxGraphModel>
  </diagram>
  <diagram id="Z0KiLbYbKYoFdAU0F1-d" name="por_defecto">
    <mxGraphModel dx="1080" dy="645" grid="1" gridSize="10" guides="1" tooltips="1" connect="1" arrows="1" fold="1" page="1" pageScale="1" pageWidth="827" pageHeight="1169" math="0" shadow="0">
      <root>
        <mxCell id="0" />
        <mxCell id="1" parent="0" />
        <mxCell id="80xTcJk21ghx8Ab9qKzK-1" value="&lt;font data-font-src=&quot;https://fonts.googleapis.com/css?family=Inter&quot; face=&quot;Inter&quot;&gt;Usuario&lt;/font&gt;" style="shape=umlActor;verticalLabelPosition=bottom;verticalAlign=top;html=1;outlineConnect=0;fontSize=14;" vertex="1" parent="1">
          <mxGeometry x="30" y="30" width="20" height="40" as="geometry" />
        </mxCell>
        <mxCell id="80xTcJk21ghx8Ab9qKzK-2" value="" style="endArrow=none;html=1;rounded=0;strokeColor=default;align=center;verticalAlign=middle;fontFamily=Helvetica;fontSize=12;fontColor=default;labelBackgroundColor=none;startSize=5;endSize=5;opacity=50;dashed=1;entryX=0.5;entryY=1;entryDx=0;entryDy=0;" edge="1" parent="1">
          <mxGeometry width="50" height="50" relative="1" as="geometry">
            <mxPoint x="200" y="270" as="sourcePoint" />
            <mxPoint x="200" y="80" as="targetPoint" />
          </mxGeometry>
        </mxCell>
        <mxCell id="80xTcJk21ghx8Ab9qKzK-3" value="&lt;font face=&quot;Inter&quot;&gt;Ventana principal&lt;/font&gt;" style="text;html=1;align=center;verticalAlign=middle;whiteSpace=wrap;rounded=0;fontFamily=Helvetica;fontSize=14;fontColor=default;labelBackgroundColor=none;" vertex="1" parent="1">
          <mxGeometry x="140" y="40" width="120" height="40" as="geometry" />
        </mxCell>
        <mxCell id="80xTcJk21ghx8Ab9qKzK-4" value="" style="endArrow=none;html=1;rounded=0;strokeColor=default;align=center;verticalAlign=middle;fontFamily=Helvetica;fontSize=12;fontColor=default;labelBackgroundColor=none;startSize=5;endSize=5;opacity=50;dashed=1;" edge="1" parent="1">
          <mxGeometry width="50" height="50" relative="1" as="geometry">
            <mxPoint x="40" y="270" as="sourcePoint" />
            <mxPoint x="40" y="100" as="targetPoint" />
          </mxGeometry>
        </mxCell>
        <mxCell id="80xTcJk21ghx8Ab9qKzK-5" style="edgeStyle=none;shape=connector;rounded=0;orthogonalLoop=1;jettySize=auto;html=1;strokeColor=default;align=center;verticalAlign=middle;fontFamily=Helvetica;fontSize=13;fontColor=default;labelBackgroundColor=default;startSize=5;endArrow=classic;endSize=5;exitX=1;exitY=0;exitDx=0;exitDy=0;entryX=0;entryY=0;entryDx=0;entryDy=0;" edge="1" parent="1" source="80xTcJk21ghx8Ab9qKzK-19" target="80xTcJk21ghx8Ab9qKzK-6">
          <mxGeometry relative="1" as="geometry">
            <mxPoint x="40" y="130" as="sourcePoint" />
            <mxPoint x="130" y="130" as="targetPoint" />
          </mxGeometry>
        </mxCell>
        <mxCell id="80xTcJk21ghx8Ab9qKzK-6" value="" style="rounded=0;whiteSpace=wrap;html=1;" vertex="1" parent="1">
          <mxGeometry x="192.5" y="130" width="15" height="110" as="geometry" />
        </mxCell>
        <mxCell id="80xTcJk21ghx8Ab9qKzK-7" value="Establecer por defecto" style="text;html=1;align=center;verticalAlign=middle;whiteSpace=wrap;rounded=0;fontFamily=Inter;fontSource=https%3A%2F%2Ffonts.googleapis.com%2Fcss%3Ffamily%3DInter;" vertex="1" parent="1">
          <mxGeometry x="40" y="110" width="160" height="20" as="geometry" />
        </mxCell>
        <mxCell id="80xTcJk21ghx8Ab9qKzK-8" style="edgeStyle=none;shape=connector;rounded=0;orthogonalLoop=1;jettySize=auto;html=1;strokeColor=default;align=center;verticalAlign=middle;fontFamily=Helvetica;fontSize=13;fontColor=default;labelBackgroundColor=default;startSize=5;endArrow=classic;endSize=5;exitX=1;exitY=0.5;exitDx=0;exitDy=0;entryX=0;entryY=0;entryDx=0;entryDy=0;" edge="1" parent="1" target="80xTcJk21ghx8Ab9qKzK-12">
          <mxGeometry relative="1" as="geometry">
            <mxPoint x="207.5" y="170" as="sourcePoint" />
            <mxPoint x="340.5" y="170" as="targetPoint" />
          </mxGeometry>
        </mxCell>
        <mxCell id="80xTcJk21ghx8Ab9qKzK-9" value="enviar(por_defecto)" style="text;html=1;align=center;verticalAlign=middle;whiteSpace=wrap;rounded=0;fontFamily=Inter;fontSource=https%3A%2F%2Ffonts.googleapis.com%2Fcss%3Ffamily%3DInter;" vertex="1" parent="1">
          <mxGeometry x="207.5" y="150" width="142.5" height="20" as="geometry" />
        </mxCell>
        <mxCell id="80xTcJk21ghx8Ab9qKzK-10" value="" style="endArrow=none;html=1;rounded=0;strokeColor=default;align=center;verticalAlign=middle;fontFamily=Helvetica;fontSize=12;fontColor=default;labelBackgroundColor=none;startSize=5;endSize=5;opacity=50;dashed=1;entryX=0.5;entryY=1;entryDx=0;entryDy=0;" edge="1" parent="1">
          <mxGeometry width="50" height="50" relative="1" as="geometry">
            <mxPoint x="360" y="270" as="sourcePoint" />
            <mxPoint x="360" y="80" as="targetPoint" />
          </mxGeometry>
        </mxCell>
        <mxCell id="80xTcJk21ghx8Ab9qKzK-11" value="&lt;font face=&quot;Inter&quot;&gt;PWM Box&lt;/font&gt;" style="text;html=1;align=center;verticalAlign=middle;whiteSpace=wrap;rounded=0;fontFamily=Helvetica;fontSize=14;fontColor=default;labelBackgroundColor=none;" vertex="1" parent="1">
          <mxGeometry x="290" y="40" width="140" height="40" as="geometry" />
        </mxCell>
        <mxCell id="80xTcJk21ghx8Ab9qKzK-12" value="" style="rounded=0;whiteSpace=wrap;html=1;" vertex="1" parent="1">
          <mxGeometry x="352.5" y="170" width="15" height="40" as="geometry" />
        </mxCell>
        <mxCell id="80xTcJk21ghx8Ab9qKzK-19" value="" style="rounded=0;whiteSpace=wrap;html=1;" vertex="1" parent="1">
          <mxGeometry x="32.5" y="130" width="15" height="40" as="geometry" />
        </mxCell>
        <mxCell id="HbbgK8rD7Y3x47FL3Zjq-1" style="edgeStyle=none;shape=connector;rounded=0;orthogonalLoop=1;jettySize=auto;html=1;strokeColor=default;align=center;verticalAlign=middle;fontFamily=Helvetica;fontSize=13;fontColor=default;labelBackgroundColor=default;startSize=5;endArrow=classic;endSize=5;exitX=1;exitY=0.222;exitDx=0;exitDy=0;entryX=1.001;entryY=0.333;entryDx=0;entryDy=0;exitPerimeter=0;entryPerimeter=0;" edge="1" parent="1">
          <mxGeometry relative="1" as="geometry">
            <mxPoint x="207.5" y="220" as="sourcePoint" />
            <mxPoint x="207.5" y="240" as="targetPoint" />
            <Array as="points">
              <mxPoint x="229.5" y="220" />
              <mxPoint x="229.5" y="240" />
            </Array>
          </mxGeometry>
        </mxCell>
        <mxCell id="zfqLGUjwpBKMfERffKU8-1" value="&amp;nbsp;actualizar()" style="text;html=1;align=left;verticalAlign=middle;whiteSpace=wrap;rounded=0;fontFamily=Inter;fontSource=https%3A%2F%2Ffonts.googleapis.com%2Fcss%3Ffamily%3DInter;" vertex="1" parent="1">
          <mxGeometry x="230" y="220" width="90" height="20" as="geometry" />
        </mxCell>
      </root>
    </mxGraphModel>
  </diagram>
</mxfile>
